<?xml version="1.0" standalone="no"?>
<!DOCTYPE svg PUBLIC "-//W3C//DTD SVG 1.1//EN" "http://www.w3.org/Graphics/SVG/1.1/DTD/svg11.dtd" >
<svg xmlns="http://www.w3.org/2000/svg">
<metadata></metadata>
<defs>
<font id="maison_neuemono" horiz-adv-x="1331" >
<font-face units-per-em="2048" ascent="1587" descent="-461" />
<missing-glyph horiz-adv-x="500" />
<glyph horiz-adv-x="1228" />
<glyph horiz-adv-x="1228" />
<glyph horiz-adv-x="682" />
<glyph unicode="&#xd;" />
<glyph unicode=" " />
<glyph unicode="!" d="M545 0v236h239v-236h-239zM582 426v1008h168v-1008h-168z" />
<glyph unicode="&#x22;" d="M475 975v459h129v-459h-129zM727 975v459h129v-459h-129z" />
<glyph unicode="#" d="M117 612v123h272l21 279h-228v121h234l22 299h131l-20 -299h272l21 299h133l-21 -299h258v-121h-266l-18 -279h219v-123h-227l-19 -295h-133l18 295h-272l-18 -295h-134l19 295h-264zM522 735h273l18 279h-272z" />
<glyph unicode="$" d="M106 494l177 34q16 -91 38.5 -155t61 -116.5t97.5 -82t143 -39.5q0 91 1 274.5t1 274.5q-232 62 -342.5 157.5t-110.5 241.5q0 154 122.5 264t332.5 117v123h90v-127q181 -16 299.5 -114t146.5 -277l-168 -37q-28 119 -90 186t-190 80v-471q198 -57 308 -118t156 -137 t46 -187q0 -183 -133 -298t-379 -118v-170h-90v174q-457 43 -517 521zM344 1083q0 -80 62.5 -134t218.5 -97v451q-140 -4 -210.5 -66t-70.5 -154zM713 129q173 0 257.5 72t84.5 186q0 66 -27 109t-100.5 82.5t-212.5 80.5q0 -88 -1 -265t-1 -265z" />
<glyph unicode="%" d="M164 1368q0 97 29 175.5t78 126.5t108 73.5t123 25.5t123.5 -25.5t108.5 -73.5t78.5 -126.5t29.5 -175.5q0 -194 -92 -311t-248 -117q-157 0 -247.5 114t-90.5 314zM250 557l762 442l69 -122l-762 -443zM305 1366q0 -137 50.5 -217t146.5 -80t147 80t51 217 q0 135 -52.5 203.5t-145.5 68.5t-145 -68.5t-52 -203.5zM487 100q0 97 29 176t78 127t108 73.5t123 25.5t123.5 -25.5t108.5 -73.5t78.5 -127t29.5 -176q0 -194 -92 -311t-248 -117q-157 0 -247.5 114t-90.5 314zM629 98q0 -137 50 -217t146 -80t147.5 80t51.5 217 q0 135 -53 204t-146 69t-144.5 -69t-51.5 -204z" />
<glyph unicode="&#x26;" d="M133 383q0 124 61 242.5t197 210.5q-56 67 -85.5 132.5t-29.5 153.5q0 143 99 242.5t256 99.5q142 0 237 -82t121 -235l-151 -33q-19 95 -67 147t-138 52q-89 0 -139 -53.5t-50 -135.5q0 -63 25 -109t78 -97l393 -381v266h152v-389l170 -148l-101 -123l-112 99 q-37 -112 -154.5 -192.5t-292.5 -80.5q-94 0 -176.5 24.5t-149 73.5t-105 130t-38.5 186zM297 393q0 -88 43.5 -149.5t111 -88t152.5 -26.5q125 0 209 61t105 158l-414 389q-100 -61 -153.5 -150.5t-53.5 -193.5z" />
<glyph unicode="'" d="M600 975v459h129v-459h-129z" />
<glyph unicode="(" d="M408 610q0 121 20 239t50 208.5t72.5 177.5t79.5 144.5t80 111.5t64 77t41 42l109 -88q-62 -70 -107 -130t-93.5 -145.5t-79 -174.5t-50 -207.5t-19.5 -252.5q0 -486 349 -927l-109 -88q-25 24 -65 74t-102 150.5t-113.5 213t-89 267.5t-37.5 308z" />
<glyph unicode=")" d="M408 -315q348 440 348 927q0 134 -19.5 252.5t-50 207.5t-78.5 174.5t-93 146t-107 129.5l108 88q20 -19 41 -41.5t64 -77t80 -112t80 -144.5t73 -177.5t50 -208.5t20 -239q0 -153 -37.5 -308t-89 -267.5t-114 -213t-102.5 -150.5t-65 -74z" />
<glyph unicode="*" d="M287 1163l71 115l240 -139v295h135v-295l242 139l69 -117l-249 -147l190 -228l-104 -92l-215 267l-213 -267l-105 92l189 228z" />
<glyph unicode="+" d="M184 711v135h408v414h147v-414h408v-135h-408v-465h-147v465h-408z" />
<glyph unicode="," d="M545 0v242h241v-211q0 -232 -241 -248v92q55 10 76.5 40.5t21.5 84.5h-98z" />
<glyph unicode="-" d="M328 623v151h673v-151h-673z" />
<glyph unicode="." d="M545 0v242h241v-242h-241z" />
<glyph unicode="/" d="M238 -31l737 1557l137 -62l-737 -1552z" />
<glyph unicode="0" d="M127 729q0 144 30 265.5t81.5 207t120.5 145.5t146.5 88.5t160.5 28.5q104 0 199 -47.5t171.5 -137.5t122 -234.5t45.5 -323.5q0 -160 -30 -288.5t-81 -214t-120.5 -142.5t-146 -82t-160.5 -25q-86 0 -163.5 26t-147 84t-119.5 144.5t-79.5 216t-29.5 289.5zM307 729 q0 -85 10 -170l662 483q-45 129 -126.5 195t-186.5 66q-162 0 -260.5 -144t-98.5 -430zM348 410q43 -139 126 -210t192 -71q161 0 259.5 148.5t98.5 443.5q0 92 -12 172z" />
<glyph unicode="1" d="M174 0v154h422v1085l-393 -248v185l413 258h138v-1280h403v-154h-983z" />
<glyph unicode="2" d="M195 995q9 221 143 345t344 124q212 0 331.5 -119.5t119.5 -295.5q0 -94 -28 -166t-96 -130.5t-110 -85.5t-139 -79l-27 -15q-21 -11 -66 -35.5t-61 -33.5t-48 -27.5t-45 -28.5t-33.5 -26t-32.5 -30.5t-23 -31.5q-41 -63 -41 -190h754v-170h-934v129q0 200 73 307 q41 64 115.5 117.5t204.5 122.5q186 101 243 143q100 74 122 164q8 34 8 74q0 48 -16.5 92t-50 81t-91.5 59t-133 22q-141 0 -227 -87t-93 -245z" />
<glyph unicode="3" d="M166 471l166 33q25 -197 106.5 -289t243.5 -92q156 0 236.5 81t80.5 199q0 150 -78.5 220.5t-234.5 70.5h-102v148h43q27 0 52 2t66 8.5t73.5 22t64 39.5t49.5 64.5t18 92.5q0 112 -71.5 176t-194.5 64q-122 0 -194.5 -72t-90.5 -201l-159 29q19 181 140.5 289t305.5 108 q187 0 307.5 -101t120.5 -282q0 -63 -20.5 -116.5t-54.5 -89t-71.5 -58.5t-76.5 -33v-4q115 -27 193.5 -125.5t78.5 -255.5q0 -187 -133.5 -308.5t-345.5 -121.5q-215 0 -351.5 123t-166.5 379z" />
<glyph unicode="4" d="M102 332v153l650 949h258v-947h178v-155h-178v-332h-164v332h-744zM285 487h561v818h-4z" />
<glyph unicode="5" d="M160 367l162 57q81 -299 350 -299q153 0 243.5 95t90.5 261q0 157 -89.5 247.5t-236.5 90.5q-116 0 -195 -50t-125 -122l-151 66l129 721h706v-156h-577l-82 -453l2 -2q43 57 128 96t200 39q123 0 226 -57t166.5 -168t63.5 -254q0 -232 -140.5 -371t-358.5 -139 q-199 0 -331.5 109.5t-180.5 288.5z" />
<glyph unicode="6" d="M131 694q0 224 72 400t198.5 273t286.5 97q97 0 176 -30t131.5 -82t85.5 -115.5t47 -136.5l-155 -41q-66 252 -289 252q-73 0 -138.5 -36t-119.5 -106t-86 -187t-33 -265l2 -2q9 22 27 48.5t53 61t79 62t109.5 46.5t139.5 19q130 0 238 -56.5t175.5 -167.5t67.5 -257 q0 -157 -66.5 -272t-177.5 -172.5t-252 -57.5q-88 0 -169 24.5t-155 80t-128.5 137.5t-86.5 206t-32 277zM354 489q0 -158 98 -261t250 -103q157 0 244.5 93t87.5 251q0 155 -91 247.5t-247 92.5q-145 0 -243.5 -96.5t-98.5 -223.5z" />
<glyph unicode="7" d="M248 1276v158h903v-177l-678 -1257h-184l692 1272v4h-733z" />
<glyph unicode="8" d="M160 406q0 134 79.5 234.5t188.5 135.5v4q-81 34 -135.5 115.5t-54.5 200.5q0 70 29.5 136t83 118t136 83t181.5 31t181.5 -31t136 -83t83 -118t29.5 -136q0 -118 -56 -199.5t-135 -116.5v-4q111 -38 187.5 -136.5t76.5 -233.5q0 -208 -138 -322.5t-365 -114.5 q-228 0 -368 115t-140 322zM334 412q0 -125 89.5 -204t244.5 -79q154 0 242.5 79t88.5 204q0 129 -92 208.5t-239 79.5t-240.5 -79.5t-93.5 -208.5zM401 1079q0 -103 73.5 -171t193.5 -68q118 0 191 68t73 171q0 99 -66.5 167.5t-197.5 68.5t-199 -68.5t-68 -167.5z" />
<glyph unicode="9" d="M156 979q0 145 66 257t173.5 170t235.5 58q249 0 396 -187t147 -562q0 -162 -26 -289.5t-71.5 -212.5t-110 -140.5t-138.5 -79.5t-160 -24q-178 0 -297 98t-158 263l158 49q28 -113 100.5 -184.5t198.5 -71.5q339 0 342 588h-4q-6 -18 -20 -42t-45.5 -56t-71.5 -58 t-103 -44.5t-135 -18.5q-205 0 -341 133.5t-136 353.5zM319 979q0 -154 88 -245t236 -91q144 0 233 92t89 236q0 145 -93.5 242.5t-240.5 97.5q-135 0 -223.5 -90t-88.5 -242z" />
<glyph unicode=":" d="M545 0v242h241v-242h-241zM545 844v241h241v-241h-241z" />
<glyph unicode=";" d="M545 0v242h241v-211q0 -232 -241 -248v92q55 10 76.5 40.5t21.5 84.5h-98zM545 844v241h241v-241h-241z" />
<glyph unicode="&#x3c;" d="M227 649l2 144l799 477l76 -123l-715 -426l715 -432l-78 -121z" />
<glyph unicode="=" d="M190 510v143h949v-143h-949zM190 854v143h949v-143h-949z" />
<glyph unicode="&#x3e;" d="M125 289l715 432l-715 426l76 123l798 -477l2 -144l-798 -481z" />
<glyph unicode="?" d="M219 1014q5 200 125.5 325t339.5 125q187 0 306.5 -107.5t119.5 -273.5q0 -42 -6.5 -78.5t-14.5 -63.5t-26.5 -55.5t-32 -46t-43 -43.5t-46.5 -39t-54 -42q-19 -15 -52.5 -40.5t-46.5 -36t-34.5 -29t-29.5 -29.5t-18 -27.5t-13 -32t-3 -35.5v-96h-162v113 q0 74 35.5 127.5t134.5 126.5q115 83 151 119q91 88 91 202q0 41 -14 80t-42.5 74t-81 56.5t-122.5 21.5q-274 0 -295 -312zM496 0v236h239v-236h-239z" />
<glyph unicode="@" d="M131 709q0 160 37.5 297.5t106.5 239t174 159t233 57.5q167 0 286 -99t175.5 -262t56.5 -372q0 -129 -14 -216t-42.5 -133.5t-63.5 -65.5t-83 -19q-114 0 -161 92h-5q-24 -40 -77.5 -66t-120.5 -26q-112 0 -184 65t-72 172q0 98 56.5 156.5t195.5 95.5q100 28 135 50.5 t35 66.5q0 52 -32.5 85.5t-98.5 33.5q-60 0 -96.5 -36t-51.5 -112l-112 27q10 106 82.5 170t173.5 64q114 0 184 -65t70 -189v-390q0 -45 19 -65.5t64 -20.5q47 0 68 70.5t21 251.5q0 135 -24 248t-72 200t-127.5 136t-184.5 49q-140 0 -240.5 -86t-149 -231t-48.5 -332 q0 -137 26 -251t77 -200t133.5 -134t189.5 -48q84 0 160.5 25.5t125.5 58.5l56 -92q-51 -38 -143 -68.5t-199 -30.5q-174 0 -297.5 97.5t-182.5 262t-59 380.5zM502 535q0 -66 43.5 -95.5t107.5 -29.5q58 0 102 39t44 112v193h-4q-15 -33 -125 -68q-100 -31 -134 -61.5 t-34 -89.5z" />
<glyph unicode="A" d="M100 0l475 1434h179l475 -1434h-178l-97 281h-587l-88 -281h-179zM414 428h491l-239 778h-4z" />
<glyph unicode="B" d="M199 0v1434h495q191 0 307.5 -105t116.5 -266q0 -108 -51.5 -179.5t-132.5 -107.5v-6q97 -31 167 -120.5t70 -225.5q0 -200 -127 -312t-385 -112h-460zM375 156h262q179 0 269.5 63t90.5 205q0 136 -86.5 194t-269.5 58h-266v-520zM375 827h289q280 0 280 226 q0 109 -74 167t-208 58h-287v-451z" />
<glyph unicode="C" d="M158 729q0 144 29.5 265.5t80.5 207t121 145.5t151 88.5t169 28.5q201 0 335.5 -138.5t161.5 -360.5l-172 -31q-11 77 -34.5 140.5t-61.5 116.5t-96.5 82.5t-132.5 29.5q-165 0 -266 -144.5t-101 -429.5q0 -298 99 -449t268 -151q77 0 137 31.5t98 88.5t59.5 127.5 t28.5 155.5l178 -22q-17 -248 -152 -394.5t-349 -146.5q-89 0 -168.5 26t-150 84t-121.5 144.5t-81 216t-30 289.5z" />
<glyph unicode="D" d="M197 0v1434h393q122 0 231.5 -43t198.5 -127.5t141.5 -225t52.5 -319.5q0 -133 -25 -243.5t-70 -187.5t-104 -134t-131.5 -90t-148 -48.5t-157.5 -15.5h-381zM373 156h190q467 0 467 563q0 270 -122 414.5t-333 144.5h-202v-1122z" />
<glyph unicode="E" d="M270 0v1434h848v-156h-672v-465h615v-151h-615v-506h672v-156h-848z" />
<glyph unicode="F" d="M287 0v1434h831v-156h-653v-518h596v-150h-596v-610h-178z" />
<glyph unicode="G" d="M150 731q0 177 46 319.5t124.5 231t178 135.5t210.5 47q188 0 321.5 -131t165.5 -342l-170 -30q-12 73 -36 132.5t-61.5 107.5t-93.5 75t-126 27q-166 0 -270.5 -145t-104.5 -427q0 -295 103 -448.5t272 -153.5q152 0 243 113q86 107 86 289v16h-360v155h530v-139 q0 -277 -139.5 -435.5t-359.5 -158.5q-91 0 -171.5 26t-152.5 85t-123.5 146t-81.5 216t-30 289z" />
<glyph unicode="H" d="M190 0v1434h177v-617h600v617h174v-1434h-174v666h-600v-666h-177z" />
<glyph unicode="I" d="M236 0v154h342v1126h-342v154h860v-154h-344v-1126h344v-154h-860z" />
<glyph unicode="J" d="M213 397l166 43q16 -75 34.5 -125t49 -95.5t78 -68t112.5 -22.5q135 0 195.5 81.5t60.5 266.5v803h-544v154h716v-967q0 -249 -109.5 -373.5t-309.5 -124.5q-188 0 -303 117.5t-146 310.5z" />
<glyph unicode="K" d="M229 0v1434h174v-701h5l581 701h213l-524 -627l582 -807h-209l-488 678h-4l-156 -182v-496h-174z" />
<glyph unicode="L" d="M340 0v1434h176v-1278h678v-156h-854z" />
<glyph unicode="M" d="M180 0v1434h230l254 -811h4l254 811h229v-1434h-156v1204h-4l-299 -925h-53l-299 925h-4v-1204h-156z" />
<glyph unicode="N" d="M207 0v1434h178l571 -1143h5v1143h163v-1434h-174l-575 1143h-4v-1143h-164z" />
<glyph unicode="O" d="M123 729q0 144 30.5 265.5t82.5 207t121.5 145.5t147.5 88.5t161 28.5t161 -29.5t147.5 -90.5t121 -147.5t82 -209t30.5 -266.5q0 -160 -30.5 -288.5t-82 -214t-121.5 -142.5t-147 -82t-161 -25q-86 0 -163.5 26t-148 84t-121 144.5t-80.5 216t-30 289.5zM307 729 q0 -296 99 -448t260 -152t259.5 148.5t98.5 443.5q0 287 -98.5 434.5t-259.5 147.5q-162 0 -260.5 -144t-98.5 -430z" />
<glyph unicode="P" d="M238 0v1434h493q217 0 350 -116t133 -327q0 -209 -130 -323.5t-349 -114.5h-323v-553h-174zM412 709h313q64 0 119 17t99 50t69.5 88.5t25.5 126.5q0 75 -26 132t-71 90t-100 49t-120 16h-309v-569z" />
<glyph unicode="Q" d="M123 729q0 144 30.5 265.5t82.5 207t121.5 145.5t147.5 88.5t161 28.5t161 -29.5t147.5 -90.5t121 -147.5t82 -209t30.5 -266.5q0 -307 -118 -508l151 -152l-98 -94l-139 137q-138 -135 -338 -135q-86 0 -163.5 26t-148 84t-121 144.5t-80.5 216t-30 289.5zM307 729 q0 -296 99 -448t260 -152q131 0 219 94l-342 342l98 94l317 -317q66 148 66 379q0 287 -98.5 434.5t-259.5 147.5q-162 0 -260.5 -144t-98.5 -430z" />
<glyph unicode="R" d="M238 0v1434h454q225 0 354.5 -108t129.5 -318q0 -173 -97.5 -277t-259.5 -133l320 -598h-191l-311 586h-225v-586h-174zM412 737h270q53 0 99 8.5t87.5 28.5t70 50.5t45.5 77.5t17 106q0 270 -323 270h-266v-541z" />
<glyph unicode="S" d="M143 494l181 34q29 -209 112 -304t271 -95q144 0 218 72t74 176q0 77 -24 123t-100.5 92.5t-235.5 105.5q-115 42 -189 78.5t-131.5 83t-83.5 104.5t-26 134q0 158 120 262t314 104q88 0 167.5 -24.5t144.5 -72t108.5 -124t56.5 -174.5l-170 -37q-24 129 -95 200t-212 71 q-126 0 -192 -58t-66 -147q0 -39 10.5 -65.5t44.5 -58t101 -64t176 -72.5q136 -51 217 -91t138.5 -92.5t79.5 -115.5t22 -154q0 -175 -127 -295.5t-347 -120.5q-248 0 -387 133.5t-170 391.5z" />
<glyph unicode="T" d="M96 1278v156h1137v-156h-481v-1278h-172v1278h-484z" />
<glyph unicode="U" d="M152 467v967h174v-955q0 -172 85.5 -261t252.5 -89q168 0 255 89t87 257v959h172v-967q0 -245 -135.5 -371.5t-378.5 -126.5q-242 0 -377 126.5t-135 371.5z" />
<glyph unicode="V" d="M100 1434h187l381 -1227h4l372 1227h185l-455 -1434h-209z" />
<glyph unicode="W" d="M117 1434h174l112 -1184h5l204 835h109l203 -835h4l112 1184h174l-161 -1434h-199l-186 758h-4l-185 -758h-200z" />
<glyph unicode="X" d="M119 0l442 748l-405 686h194l320 -566h4l307 566h190l-397 -701l436 -733h-192l-352 612h-4l-351 -612h-192z" />
<glyph unicode="Y" d="M106 1434h193l365 -666h4l364 666h193l-473 -830v-604h-172v604z" />
<glyph unicode="Z" d="M158 0v139l803 1135v4h-766v156h979v-140l-805 -1132v-4h788v-158h-999z" />
<glyph unicode="[" d="M408 -373v1868h516v-141h-365v-1585h365v-142h-516z" />
<glyph unicode="\" d="M217 1462l137 64l738 -1557l-138 -59z" />
<glyph unicode="]" d="M408 -231h364v1585h-364v141h516v-1868h-516v142z" />
<glyph unicode="^" d="M260 666l354 768h101l354 -768h-154l-249 571l-252 -571h-154z" />
<glyph unicode="_" d="M152 -143h1028v-140h-1028v140z" />
<glyph unicode="`" d="M481 1466h207l160 -247h-146z" />
<glyph unicode="a" d="M236 279q0 134 84.5 211t283.5 128q56 14 91.5 24t75 23.5t62.5 27t44 30.5t29.5 38.5t8.5 47.5q0 67 -61.5 112.5t-165.5 45.5q-119 0 -180.5 -57t-83.5 -158l-156 45q26 142 134.5 230.5t279.5 88.5q182 0 297 -92.5t115 -249.5v-774h-152v119h-4q-13 -23 -38.5 -46.5 t-65 -48t-99.5 -40t-129 -15.5q-181 0 -275.5 88.5t-94.5 221.5zM403 289q0 -170 215 -170q148 0 228 66t80 163v270h-4q-13 -28 -70 -58t-209 -71q-140 -38 -190 -83t-50 -117z" />
<glyph unicode="b" d="M254 0v1495h168v-514h4q48 57 124.5 96t176.5 39q206 0 340.5 -158t134.5 -415q0 -261 -130 -417.5t-345 -156.5q-109 0 -191.5 42t-125.5 93h-4v-104h-152zM422 360q0 -97 79 -168t199 -71q161 0 245.5 110.5t84.5 311.5t-84.5 311.5t-245.5 110.5q-86 0 -151 -42 t-96 -102t-31 -125v-336z" />
<glyph unicode="c" d="M229 543q0 132 39.5 241.5t107.5 181.5t158.5 111t192.5 39q175 0 296 -110t148 -287l-157 -33q-25 121 -95 200t-192 79q-146 0 -237 -111.5t-91 -310.5q0 -197 88.5 -309.5t241.5 -112.5q83 0 147 45t97.5 109.5t44.5 140.5l162 -33q-26 -189 -149.5 -301.5 t-303.5 -112.5q-220 0 -359 153.5t-139 420.5z" />
<glyph unicode="d" d="M168 543q0 130 37.5 238.5t102 181t151 113t184.5 40.5q101 0 177 -38.5t124 -96.5h4v514h168v-1495h-151v104h-4q-43 -51 -126 -93t-192 -42q-215 0 -345 156.5t-130 417.5zM340 543q0 -201 84.5 -311.5t245.5 -110.5q120 0 199 71t79 168v336q0 65 -31 125t-96 102 t-151 42q-161 0 -245.5 -110.5t-84.5 -311.5z" />
<glyph unicode="e" d="M170 543q0 260 140.5 416.5t359.5 156.5q218 0 354.5 -153.5t136.5 -419.5v-49h-819q1 -100 36 -182.5t111.5 -136.5t184.5 -54q59 0 108.5 15t79.5 33.5t58.5 51.5t39.5 51.5t28 50.5q5 9 7 13l138 -90q-61 -120 -175.5 -198.5t-279.5 -78.5q-222 0 -365 157t-143 417z M346 627h645q-2 63 -19.5 120t-53.5 107.5t-99.5 80.5t-148.5 30q-67 0 -122.5 -22.5t-92 -58t-61.5 -81t-36 -90t-12 -86.5z" />
<glyph unicode="f" d="M233 936v149h342v166q0 71 17.5 120t51.5 75.5t75.5 37.5t97.5 11h221v-149h-190q-64 0 -85.5 -25t-21.5 -102v-134h396v-149h-394v-936h-168v936h-342z" />
<glyph unicode="g" d="M162 543q0 130 37.5 238.5t102.5 181t152.5 113t186.5 40.5q196 0 305 -135h4v104h166v-1101q0 -232 -117 -354t-321 -122q-166 0 -275.5 81t-154.5 214l145 76q17 -48 37.5 -83t52.5 -69t80.5 -51.5t110.5 -17.5q131 0 202.5 77t71.5 214v145h-4q-107 -125 -301 -125 q-215 0 -348 155.5t-133 418.5zM334 543q0 -200 86.5 -311t247.5 -111q120 0 200 70t80 165v344q0 64 -31.5 123.5t-97 100.5t-151.5 41q-160 0 -247 -111.5t-87 -310.5z" />
<glyph unicode="h" d="M246 0v1495h168v-518h4q45 61 132 100t185 39q174 0 281.5 -105.5t107.5 -301.5v-709h-168v664q0 142 -61.5 220.5t-189.5 78.5q-132 0 -211.5 -77.5t-79.5 -203.5v-682h-168z" />
<glyph unicode="i" d="M256 0v143h377v799h-367v143h533v-942h358v-143h-901zM621 1305v190h192v-190h-192z" />
<glyph unicode="j" d="M291 -256l106 119q94 -111 203 -111q83 0 130.5 48.5t47.5 152.5v983h-416v149h584v-1132q0 -89 -28 -158t-77 -110.5t-110 -62.5t-131 -21q-110 0 -192.5 47.5t-116.5 95.5zM743 1305v190h191v-190h-191z" />
<glyph unicode="k" d="M297 0v1495h168v-907h4l457 497h223l-397 -430l446 -655h-203l-368 551h-4l-158 -174v-377h-168z" />
<glyph unicode="l" d="M270 0v150h363v1196h-352v149h520v-1345h370v-150h-901z" />
<glyph unicode="m" d="M209 0v1085h151v-104h5q21 60 68 97.5t106 37.5q148 0 194 -160h4q23 66 78 113t137 47q134 0 190 -96t56 -281v-739h-156v688q0 146 -24.5 210.5t-95.5 64.5q-142 0 -142 -261v-702h-149v688q0 144 -26 209.5t-99 65.5t-107 -73t-34 -188v-702h-156z" />
<glyph unicode="n" d="M238 0v1085h159v-104h4q44 58 128.5 96.5t177.5 38.5q177 0 283 -108t106 -295v-713h-168v659q0 304 -246 304q-126 0 -201 -72t-75 -199v-692h-168z" />
<glyph unicode="o" d="M172 543q0 135 41 245.5t110 181t158.5 108.5t188.5 38q98 0 185.5 -38t155.5 -108.5t108 -181t40 -245.5q0 -269 -138.5 -421.5t-350.5 -152.5q-104 0 -194.5 38t-158 109t-106.5 181t-39 246zM344 543q0 -203 91.5 -312.5t234.5 -109.5q138 0 227.5 111.5t89.5 310.5 t-88.5 310.5t-228.5 111.5q-144 0 -235 -110t-91 -312z" />
<glyph unicode="p" d="M231 -461v1546h160v-104h4q41 52 123.5 93.5t188.5 41.5q99 0 186 -40.5t151.5 -113t102 -181t37.5 -238.5q0 -262 -132.5 -418t-344.5 -156q-100 0 -184.5 43t-119.5 92h-4v-565h-168zM399 356q0 -95 79.5 -165t199.5 -70q162 0 249 111t87 311q0 199 -88 310.5 t-248 111.5q-64 0 -118 -24t-88.5 -62.5t-53.5 -85t-19 -93.5v-344z" />
<glyph unicode="q" d="M145 543q0 130 38 238.5t103 181t152.5 113t186.5 40.5q104 0 186 -41.5t125 -93.5h4v104h160v-1546h-168v565h-4q-16 -21 -39 -41t-59.5 -43t-90.5 -37t-116 -14q-212 0 -345 156t-133 418zM317 543q0 -200 86.5 -311t247.5 -111q120 0 200.5 70t80.5 165v344 q0 47 -19 93.5t-53.5 85t-89 62.5t-119.5 24q-160 0 -247 -111.5t-87 -310.5z" />
<glyph unicode="r" d="M377 0v1085h160v-157h4q37 73 123 124.5t186 51.5q125 0 215.5 -66.5t132.5 -193.5l-164 -70q-49 160 -211 160q-121 0 -199.5 -90t-78.5 -240v-604h-168z" />
<glyph unicode="s" d="M207 369l160 30q19 -143 103.5 -213.5t242.5 -70.5q147 0 215.5 46.5t68.5 125.5q0 42 -9.5 67t-45.5 51.5t-104 49.5t-187 53q-129 33 -210.5 66t-124.5 73q-44 40 -58 81q-13 36 -12 85v14q2 53 28.5 104t75.5 92.5t127.5 67t175.5 25.5q190 0 303.5 -83.5 t151.5 -219.5l-150 -49q-72 209 -303 209q-118 0 -181.5 -44.5t-63.5 -97.5q0 -19 1 -29t5 -24.5t13 -23.5t25.5 -21.5t41 -22.5t60.5 -23t84 -26.5t112 -29.5q80 -20 140.5 -41.5t102.5 -40.5t71 -44t45.5 -46t25.5 -52t11.5 -55.5t4.5 -64.5v-10q-1 -56 -21 -107 q-22 -55 -71.5 -101t-138.5 -73t-207 -27q-123 0 -218 31.5t-154 88t-92.5 126.5t-43.5 154z" />
<glyph unicode="t" d="M195 936v149h348v267h164v-267h391v-149h-389v-600q0 -96 26.5 -135t106.5 -39h184v-162h-192q-154 0 -223.5 79t-69.5 236v621h-346z" />
<glyph unicode="u" d="M246 379v706h168v-682q0 -151 58 -214.5t194 -63.5q122 0 188 75.5t66 211.5v673h167v-1085h-165v104h-4q-4 -5 -11 -14.5t-34 -32.5t-57.5 -41t-81 -32.5t-105.5 -14.5q-180 0 -281.5 102.5t-101.5 307.5z" />
<glyph unicode="v" d="M156 1085h176l332 -849h4l331 849h177l-439 -1085h-143z" />
<glyph unicode="w" d="M154 1083h165l113 -817h4l146 469h151l141 -469h5l133 817h164l-199 -1083h-154l-166 537h-4l-166 -537h-155z" />
<glyph unicode="x" d="M188 0l367 557l-344 528h188l265 -417h4l264 417h186l-342 -528l367 -557h-191l-286 446h-4l-283 -446h-191z" />
<glyph unicode="y" d="M143 1085h181l321 -788h4l289 788h176l-584 -1546h-170l205 543z" />
<glyph unicode="z" d="M215 0v131l682 797v4h-643v153h864v-127l-676 -798v-4h678v-156h-905z" />
<glyph unicode="{" d="M381 492v182h57q59 0 84 29.5t25 95.5v409q0 85 19 142.5t56.5 88.5t84 43.5t110.5 12.5h131v-143h-108q-75 0 -108.5 -39.5t-33.5 -138.5v-381q0 -48 -13.5 -86.5t-32 -60t-40.5 -36.5t-35.5 -20t-21.5 -6q103 -41 132 -131q11 -34 11 -74v-428q0 -99 33.5 -138.5 t110.5 -39.5h106v-144h-131q-65 0 -110.5 12t-83.5 42.5t-57 88.5t-19 144v457q0 65 -24.5 92t-84.5 27h-57z" />
<glyph unicode="|" d="M584 -614v2201h164v-2201h-164z" />
<glyph unicode="}" d="M381 -227h106q77 0 110.5 39.5t33.5 138.5v428q0 129 107 189q12 6 36 16q-8 1 -21.5 6t-35.5 20t-40.5 36.5t-32 60t-13.5 86.5v381q0 99 -33.5 138.5t-108.5 39.5h-108v143h131q64 0 110.5 -12.5t84 -43.5t56.5 -88.5t19 -142.5v-409q0 -66 25 -95.5t84 -29.5h57v-182 h-57q-60 0 -84.5 -27t-24.5 -92v-457q0 -86 -19 -144t-57 -88.5t-83.5 -42.5t-110.5 -12h-131v144z" />
<glyph unicode="~" d="M168 653q13 58 35 107.5t55.5 92.5t82.5 68t108 25q56 0 108.5 -18.5t92.5 -44.5t77.5 -52t78 -44.5t77.5 -18.5q30 0 55 11t40.5 25.5t29.5 40t21 44t17 46.5q3 10 5 15l112 -35q-10 -46 -25.5 -86.5t-40 -79t-54.5 -66t-71 -44t-89 -16.5q-68 0 -134.5 28t-109 61 t-94.5 61t-96 28q-30 0 -55 -11t-40.5 -25.5t-29.5 -40t-21 -44t-17 -47.5q-3 -10 -5 -15z" />
<glyph unicode="&#xa0;" />
<glyph unicode="&#xa1;" d="M545 850v235h239v-235h-239zM582 -348v1007h168v-1007h-168z" />
<glyph unicode="&#xa2;" d="M193 543q0 252 128.5 404.5t327.5 166.5v178h72v-178q161 -10 272.5 -119t136.5 -276l-157 -33q-23 112 -84.5 189t-167.5 88v-840q73 8 129.5 53.5t86 106.5t40.5 133l162 -33q-25 -179 -138.5 -290t-279.5 -122v-196h-72v196q-204 12 -330 164t-126 408zM358 543 q0 -185 77.5 -295.5t213.5 -124.5v840q-132 -14 -211.5 -124t-79.5 -296z" />
<glyph unicode="&#xa3;" d="M164 0v156h76q68 0 96.5 28t28.5 97v370h-201v129h201v252q0 209 106.5 320.5t288.5 111.5q171 0 273.5 -100.5t127.5 -290.5l-155 -33q-24 140 -79 205.5t-165 65.5q-230 0 -230 -291v-240h412v-129h-412v-495h635v-156h-1003z" />
<glyph unicode="&#xa4;" d="M143 233l133 134q-96 132 -96 307q0 170 96 305l-133 133l82 82l129 -131q137 117 310 117q181 0 313 -113l127 127l82 -82l-131 -131q94 -137 94 -307q0 -177 -96 -309l133 -132l-82 -81l-131 129q-130 -105 -309 -105q-182 0 -308 107l-131 -131zM365 672 q0 -91 26 -160t70 -107t95.5 -56.5t109.5 -18.5q57 0 107.5 18.5t95 56.5t70.5 107t26 160q0 93 -26 163.5t-70.5 109.5t-95 58t-107.5 19q-58 0 -109.5 -19t-95.5 -58t-70 -109.5t-26 -163.5z" />
<glyph unicode="&#xa5;" d="M111 1434h186l367 -662h4l366 662h187l-394 -691h306v-139h-381v-182h381v-137h-383v-285h-166v285h-385v137h381v182h-381v139h305z" />
<glyph unicode="&#xa6;" d="M588 -268v669h164v-669h-164zM588 657v670h164v-670h-164z" />
<glyph unicode="&#xa7;" d="M160 608q-1 92 47.5 165.5t128.5 125.5q-78 85 -78 213q0 154 109.5 253t273.5 99q172 0 288.5 -95.5t139.5 -274.5l-164 -31q-23 130 -86 189t-172 59q-112 0 -166.5 -58t-54.5 -137q0 -73 44 -124.5t136 -88.5l299 -119q142 -56 203 -127t63 -172q3 -171 -178 -290 q80 -83 80 -213q0 -154 -109.5 -253.5t-273.5 -99.5q-172 0 -288.5 96t-139.5 275l164 31q23 -130 86 -189t172 -59q112 0 166.5 57.5t54.5 136.5q0 76 -43.5 125.5t-136.5 87.5l-297 119q-143 56 -204.5 127t-63.5 172zM330 618q0 -60 43.5 -104.5t136.5 -79.5l297 -115 q36 -13 74 -36q123 84 123 192q0 59 -45 103.5t-138 80.5l-295 115q-35 13 -75 35q-52 -36 -86.5 -85.5t-34.5 -105.5z" />
<glyph unicode="&#xa8;" d="M375 1251v187h186v-187h-186zM768 1251v187h186v-187h-186z" />
<glyph unicode="&#xa9;" d="M147 725q0 174 70 318.5t191 227.5t266 83q140 0 256.5 -83t184 -227.5t67.5 -318.5q0 -175 -67.5 -320t-184 -228t-256.5 -83q-145 0 -266 83t-191 228t-70 320zM248 725q0 -227 123 -379.5t303 -152.5q172 0 289.5 152.5t117.5 379.5q0 225 -117.5 376.5t-289.5 151.5 q-180 0 -303 -151.5t-123 -376.5zM412 713q0 188 77 293.5t193 105.5q100 0 160.5 -76.5t70.5 -191.5l-106 -21q-7 80 -38 133.5t-87 53.5q-69 0 -113.5 -77t-44.5 -220q0 -136 45 -209.5t113 -73.5q60 0 91.5 54.5t37.5 144.5l107 -21q-12 -124 -74 -201t-162 -77 q-115 0 -192.5 102t-77.5 281z" />
<glyph unicode="&#xaa;" d="M408 950q0 81 49 125.5t166 75.5q103 26 139.5 46t36.5 58t-29.5 62t-93.5 24q-128 0 -150 -120l-102 39q16 80 81 132t169 52q111 0 179.5 -57.5t68.5 -176.5v-424h-105v66h-2q-13 -26 -61 -55t-127 -29q-109 0 -164 51.5t-55 130.5zM524 958q0 -88 113 -88 q83 0 125.5 35.5t42.5 87.5v142h-2q-5 -11 -14 -19t-44.5 -22.5t-97.5 -30.5q-76 -19 -99.5 -43t-23.5 -62z" />
<glyph unicode="&#xab;" d="M276 575l222 381h168l-224 -381l224 -374h-168zM664 575l221 381h168l-224 -381l224 -374h-168z" />
<glyph unicode="&#xac;" d="M176 770v154h977v-508h-164v354h-813z" />
<glyph unicode="&#xad;" d="M328 623v151h673v-151h-673z" />
<glyph unicode="&#xae;" d="M305 1085q0 152 104.5 256.5t256.5 104.5t256 -104.5t104 -256.5t-104 -256t-256 -104t-256.5 104t-104.5 256zM369 1085q0 -128 85 -215.5t212 -87.5t214 87.5t87 215.5q0 127 -86.5 213t-214.5 86q-127 0 -212 -85.5t-85 -213.5zM541 868v430h131q74 0 114.5 -32 t40.5 -95q0 -98 -106 -122l96 -181h-65l-90 176h-66v-176h-55zM596 1096h78q94 0 94 75q0 44 -25.5 60t-70.5 16h-76v-151z" />
<glyph unicode="&#xaf;" d="M371 1270v125h590v-125h-590z" />
<glyph unicode="&#xb0;" d="M385 1286q0 121 80.5 207t198.5 86q122 0 201 -84.5t79 -208.5q0 -125 -79 -207t-201 -82t-200.5 83t-78.5 206zM522 1286q0 -90 40.5 -128t101.5 -38t101 38t40 128q0 92 -40 131t-101 39t-101.5 -39t-40.5 -131z" />
<glyph unicode="&#xb1;" d="M150 856v143h438v342h153v-342h439v-143h-439v-385h-153v385h-438zM207 197v143h934v-143h-934z" />
<glyph unicode="&#xb2;" d="M367 1561q7 139 89.5 215.5t219.5 76.5q126 0 204 -73t78 -191q0 -54 -18.5 -98t-55.5 -77.5t-72 -55t-87 -47.5q-70 -37 -92.5 -50t-49 -32t-38.5 -37q-21 -29 -21 -88h441v-135h-590v106q0 111 53 185q19 25 53 49.5t57.5 37.5t82.5 44q11 6 36 20t34.5 19t30 17t28 18 t22.5 17t21 19t15 19.5t12 22.5t6 25t3 29q0 55 -40 95.5t-113 40.5q-80 0 -125 -49t-53 -140z" />
<glyph unicode="&#xb3;" d="M352 1257l133 29q12 -105 58 -155t133 -50q85 0 128.5 40t43.5 106q0 72 -47 110.5t-133 38.5h-54v109h41q36 0 69 9.5t60 37t27 70.5q0 60 -37 94.5t-104 34.5q-128 0 -148 -146l-127 25q10 112 86 177.5t193 65.5q114 0 190 -63t76 -170q0 -71 -38 -115.5t-81 -58.5v-4 q26 -8 51 -23.5t49.5 -41.5t40 -67t15.5 -91q0 -112 -81 -186.5t-220 -74.5q-134 0 -220 75t-104 224z" />
<glyph unicode="&#xb4;" d="M483 1219l160 247h205l-219 -247h-146z" />
<glyph unicode="&#xb5;" d="M223 -461v1546h168v-657q0 -149 76 -226t205 -77q124 0 196 77.5t72 205.5v677h166v-1085h-164v104h-4q-6 -10 -25.5 -29t-53.5 -44.5t-88 -43.5t-112 -18q-81 0 -153 25.5t-119 77.5v-533h-164z" />
<glyph unicode="&#xb6;" d="M203 971q0 158 96.5 249t241.5 91h587v-1590h-141v1440h-303v-1440h-152v910q-139 3 -234 97.5t-95 242.5z" />
<glyph unicode="&#xb7;" d="M545 659v242h241v-242h-241z" />
<glyph unicode="&#xb8;" d="M442 -356l60 82q76 -60 153 -60q57 0 90 23t33 69q0 84 -98 84q-34 0 -68 -10t-52 -20l-17 -9l-60 33l97 164h88l-76 -119q44 29 119 29q71 0 123.5 -40.5t52.5 -113.5q0 -84 -59 -136t-179 -52q-59 0 -114 22.5t-93 53.5z" />
<glyph unicode="&#xb9;" d="M371 969v127h237v590l-188 -117v149l201 125h120v-747h220v-127h-590z" />
<glyph unicode="&#xba;" d="M377 1108q0 158 84 248t207 90q120 0 203 -90t83 -248q0 -159 -81 -249.5t-205 -90.5q-126 0 -208.5 90.5t-82.5 249.5zM498 1108q0 -110 47 -169.5t123 -59.5q74 0 120 60.5t46 168.5q0 107 -46 167t-120 60q-76 0 -123 -59t-47 -168z" />
<glyph unicode="&#xbb;" d="M174 201l223 374l-223 381h168l221 -381l-221 -374h-168zM561 201l223 374l-223 381h168l221 -381l-221 -374h-168z" />
<glyph unicode="&#xbc;" d="M225 653v123h881v-123h-881zM350 -57l332 546h195v-546h106v-125h-106v-203h-134v203h-393v125zM371 948v127h237v590l-188 -117v150l201 125h120v-748h220v-127h-590zM475 -57h268v432h-4z" />
<glyph unicode="&#xbd;" d="M225 653v123h881v-123h-881zM367 207q7 139 89.5 216t219.5 77q126 0 204 -73t78 -191q0 -54 -18.5 -98.5t-55.5 -78t-72 -55.5t-87 -47q-70 -37 -92.5 -50t-49 -32t-38.5 -37q-21 -29 -21 -88h441v-135h-590v106q0 111 53 185q19 25 53 49.5t57.5 37.5t82.5 44 q114 63 140 82q66 55 68 125q0 54 -40 94.5t-113 40.5q-80 0 -125 -49t-53 -140zM371 948v127h237v590l-188 -117v150l201 125h120v-748h220v-127h-590z" />
<glyph unicode="&#xbe;" d="M225 655v123h881v-123h-881zM350 -57l332 546h195v-546h106v-125h-106v-203h-134v203h-393v125zM354 1237l133 29q12 -105 58 -155t133 -50q85 0 128.5 39.5t43.5 105.5q0 72 -47 111t-133 39h-54v108h41q36 0 69 9.5t60 37t27 70.5q0 60 -37 94.5t-104 34.5 q-128 0 -148 -145l-127 24q10 112 86 178t193 66q114 0 190 -63.5t76 -170.5q0 -71 -38 -115.5t-81 -58.5v-4q26 -8 51 -23.5t49.5 -41.5t40 -67t15.5 -91q0 -112 -81 -186t-220 -74q-134 0 -220 75t-104 224zM475 -57h268v432h-4z" />
<glyph unicode="&#xbf;" d="M219 2q0 58 12 106t27.5 80t50 68.5t58.5 56t75 58.5q20 16 60 46.5t52.5 40.5t35.5 31.5t29.5 35t13 33t6.5 42.5v96h162v-112q0 -74 -35.5 -127.5t-134.5 -126.5q-116 -84 -153 -120q-89 -89 -89 -202q0 -41 14 -79.5t42.5 -73.5t81 -56.5t122.5 -21.5q274 0 295 311 l166 -16q-5 -200 -125.5 -325.5t-339.5 -125.5q-187 0 -306.5 107.5t-119.5 273.5zM594 850v235h240v-235h-240z" />
<glyph unicode="&#xc0;" d="M100 0l475 1434h179l475 -1434h-178l-97 281h-587l-88 -281h-179zM371 1815h207l159 -248h-145zM414 428h491l-239 778h-4z" />
<glyph unicode="&#xc1;" d="M100 0l475 1434h179l475 -1434h-178l-97 281h-587l-88 -281h-179zM414 428h491l-239 778h-4zM596 1567l162 248h205l-222 -248h-145z" />
<glyph unicode="&#xc2;" d="M100 0l475 1434h179l475 -1434h-178l-97 281h-587l-88 -281h-179zM414 428h491l-239 778h-4zM420 1608l135 174h223l135 -174l-98 -78l-149 188l-150 -188z" />
<glyph unicode="&#xc3;" d="M100 0l475 1434h179l475 -1434h-178l-97 281h-587l-88 -281h-179zM379 1567q35 190 182 190q55 0 127 -38t107 -38q57 0 73 66h90q-7 -41 -19 -72t-32 -59.5t-52.5 -44t-76.5 -15.5q-45 0 -88 19t-80 38t-67 19q-58 0 -74 -65h-90zM414 428h491l-239 778h-4z" />
<glyph unicode="&#xc4;" d="M100 0l475 1434h179l475 -1434h-178l-97 281h-587l-88 -281h-179zM379 1567v186h186v-186h-186zM414 428h491l-239 778h-4zM772 1567v186h186v-186h-186z" />
<glyph unicode="&#xc5;" d="M100 0l471 1421q-50 26 -78 76t-28 113q0 87 58 148t143 61q88 0 144 -60t56 -149q0 -64 -29 -114t-79 -75l471 -1421h-178l-97 281h-587l-88 -281h-179zM414 428h491l-239 778h-4zM569 1612q0 -57 28.5 -88t68.5 -31t69 31t29 88q0 58 -28.5 87.5t-69.5 29.5 q-40 0 -68.5 -29.5t-28.5 -87.5z" />
<glyph unicode="&#xc6;" d="M72 0l538 1434h617v-156h-340v-465h282v-149h-282v-508h340v-156h-500v305h-369l-112 -305h-174zM410 453h317v845h-4z" />
<glyph unicode="&#xc7;" d="M158 729q0 144 29.5 265.5t80.5 207t121 145.5t151 88.5t169 28.5q201 0 335.5 -138.5t161.5 -360.5l-172 -31q-11 77 -34.5 140.5t-61.5 116.5t-96.5 82.5t-132.5 29.5q-165 0 -266 -144.5t-101 -429.5q0 -298 99 -449t268 -151q77 0 137 31.5t98 88.5t59.5 127.5 t28.5 155.5l178 -22q-17 -234 -138 -378t-316 -161l-58 -90q44 29 119 29q71 0 123.5 -40.5t52.5 -113.5q0 -84 -58.5 -136t-178.5 -52q-59 0 -114 22.5t-93 53.5l59 82q76 -60 154 -60q57 0 90 23t33 69q0 84 -99 84q-34 0 -68 -10t-52 -20l-17 -9l-59 33l78 135 q-84 6 -157.5 35.5t-139 89.5t-112.5 145.5t-74 210t-27 277.5z" />
<glyph unicode="&#xc8;" d="M270 0v1434h848v-156h-672v-465h615v-151h-615v-506h672v-156h-848zM455 1815h207l159 -248h-145z" />
<glyph unicode="&#xc9;" d="M270 0v1434h848v-156h-672v-465h615v-151h-615v-506h672v-156h-848zM614 1567l162 248h205l-221 -248h-146z" />
<glyph unicode="&#xca;" d="M270 0v1434h848v-156h-672v-465h615v-151h-615v-506h672v-156h-848zM453 1608l135 174h223l135 -174l-98 -78l-150 188l-149 -188z" />
<glyph unicode="&#xcb;" d="M270 0v1434h848v-156h-672v-465h615v-151h-615v-506h672v-156h-848zM410 1567v186h186v-186h-186zM803 1567v186h186v-186h-186z" />
<glyph unicode="&#xcc;" d="M236 0v154h342v1126h-342v154h860v-154h-344v-1126h344v-154h-860zM373 1815h207l159 -248h-145z" />
<glyph unicode="&#xcd;" d="M236 0v154h342v1126h-342v154h860v-154h-344v-1126h344v-154h-860zM571 1567l162 248h205l-221 -248h-146z" />
<glyph unicode="&#xce;" d="M236 0v154h342v1126h-342v154h860v-154h-344v-1126h344v-154h-860zM420 1608l135 174h223l135 -174l-98 -78l-149 188l-150 -188z" />
<glyph unicode="&#xcf;" d="M236 0v154h342v1126h-342v154h860v-154h-344v-1126h344v-154h-860zM377 1567v186h186v-186h-186zM770 1567v186h186v-186h-186z" />
<glyph unicode="&#xd0;" d="M106 655v160h140v619h325q97 0 186.5 -26t169 -83t138.5 -139.5t93 -202.5t34 -264q0 -159 -36 -285t-95.5 -206t-142.5 -132.5t-171 -74t-188 -21.5h-313v655h-140zM416 156h129q467 0 467 563q0 270 -122 414.5t-333 144.5h-141v-463h381v-160h-381v-499z" />
<glyph unicode="&#xd1;" d="M201 0v1434h178l571 -1143h4v1143h164v-1434h-174l-575 1143h-4v-1143h-164zM401 1567q35 190 183 190q56 0 127 -38t106 -38q58 0 74 66h90q-7 -41 -19 -72t-32 -59.5t-52.5 -44t-76.5 -15.5q-45 0 -88.5 19t-80.5 38t-67 19q-57 0 -73 -65h-91z" />
<glyph unicode="&#xd2;" d="M123 729q0 144 30.5 265.5t82.5 207t121.5 145.5t147.5 88.5t161 28.5t161 -29.5t147.5 -90.5t121 -147.5t82 -209t30.5 -266.5q0 -160 -30.5 -288.5t-82 -214t-121.5 -142.5t-147 -82t-161 -25q-86 0 -163.5 26t-148 84t-121 144.5t-80.5 216t-30 289.5zM307 729 q0 -296 99 -448t260 -152t259.5 148.5t98.5 443.5q0 287 -98.5 434.5t-259.5 147.5q-162 0 -260.5 -144t-98.5 -430zM381 1815h207l160 -248h-146z" />
<glyph unicode="&#xd3;" d="M123 729q0 144 30.5 265.5t82.5 207t121.5 145.5t147.5 88.5t161 28.5t161 -29.5t147.5 -90.5t121 -147.5t82 -209t30.5 -266.5q0 -160 -30.5 -288.5t-82 -214t-121.5 -142.5t-147 -82t-161 -25q-86 0 -163.5 26t-148 84t-121 144.5t-80.5 216t-30 289.5zM307 729 q0 -296 99 -448t260 -152t259.5 148.5t98.5 443.5q0 287 -98.5 434.5t-259.5 147.5q-162 0 -260.5 -144t-98.5 -430zM590 1567l162 248h204l-221 -248h-145z" />
<glyph unicode="&#xd4;" d="M123 729q0 144 30.5 265.5t82.5 207t121.5 145.5t147.5 88.5t161 28.5t161 -29.5t147.5 -90.5t121 -147.5t82 -209t30.5 -266.5q0 -160 -30.5 -288.5t-82 -214t-121.5 -142.5t-147 -82t-161 -25q-86 0 -163.5 26t-148 84t-121 144.5t-80.5 216t-30 289.5zM307 729 q0 -296 99 -448t260 -152t259.5 148.5t98.5 443.5q0 287 -98.5 434.5t-259.5 147.5q-162 0 -260.5 -144t-98.5 -430zM436 1608l135 174h224l135 -174l-99 -78l-149 188l-150 -188z" />
<glyph unicode="&#xd5;" d="M123 729q0 144 30.5 265.5t82.5 207t121.5 145.5t147.5 88.5t161 28.5t161 -29.5t147.5 -90.5t121 -147.5t82 -209t30.5 -266.5q0 -160 -30.5 -288.5t-82 -214t-121.5 -142.5t-147 -82t-161 -25q-86 0 -163.5 26t-148 84t-121 144.5t-80.5 216t-30 289.5zM307 729 q0 -296 99 -448t260 -152t259.5 148.5t98.5 443.5q0 287 -98.5 434.5t-259.5 147.5q-162 0 -260.5 -144t-98.5 -430zM391 1567q35 190 182 190q55 0 127 -38t107 -38q58 0 74 66h90q-7 -41 -19 -72t-32 -59.5t-52.5 -44t-76.5 -15.5q-45 0 -88.5 19t-80.5 38t-67 19 q-58 0 -74 -65h-90z" />
<glyph unicode="&#xd6;" d="M123 729q0 144 30.5 265.5t82.5 207t121.5 145.5t147.5 88.5t161 28.5t161 -29.5t147.5 -90.5t121 -147.5t82 -209t30.5 -266.5q0 -160 -30.5 -288.5t-82 -214t-121.5 -142.5t-147 -82t-161 -25q-86 0 -163.5 26t-148 84t-121 144.5t-80.5 216t-30 289.5zM307 729 q0 -296 99 -448t260 -152t259.5 148.5t98.5 443.5q0 287 -98.5 434.5t-259.5 147.5q-162 0 -260.5 -144t-98.5 -430zM385 1567v186h186v-186h-186zM778 1567v186h187v-186h-187z" />
<glyph unicode="&#xd7;" d="M217 344l346 344l-325 326l104 102l324 -323l325 323l103 -102l-326 -326l346 -344l-102 -102l-346 344l-344 -344z" />
<glyph unicode="&#xd8;" d="M127 729q0 144 30 265.5t81.5 207t120.5 145.5t146.5 88.5t160.5 28.5q169 0 303 -116l67 116l84 -49l-82 -141q166 -204 166 -553q0 -160 -30 -288.5t-81 -214t-120.5 -142.5t-146 -82t-160.5 -25q-183 0 -312 109l-61 -109l-84 47l76 136q-158 199 -158 577zM307 729 q0 -255 76 -407l504 882q-89 99 -221 99q-162 0 -260.5 -144t-98.5 -430zM442 231q86 -102 224 -102q161 0 259.5 148.5t98.5 443.5q0 241 -76 393z" />
<glyph unicode="&#xd9;" d="M152 467v967h174v-955q0 -172 85.5 -261t252.5 -89q168 0 255 89t87 257v959h172v-967q0 -245 -135.5 -371.5t-378.5 -126.5q-242 0 -377 126.5t-135 371.5zM410 1815h206l160 -248h-145z" />
<glyph unicode="&#xda;" d="M152 467v967h174v-955q0 -172 85.5 -261t252.5 -89q168 0 255 89t87 257v959h172v-967q0 -245 -135.5 -371.5t-378.5 -126.5q-242 0 -377 126.5t-135 371.5zM602 1567l162 248h205l-221 -248h-146z" />
<glyph unicode="&#xdb;" d="M152 467v967h174v-955q0 -172 85.5 -261t252.5 -89q168 0 255 89t87 257v959h172v-967q0 -245 -135.5 -371.5t-378.5 -126.5q-242 0 -377 126.5t-135 371.5zM440 1608l135 174h224l135 -174l-98 -78l-150 188l-149 -188z" />
<glyph unicode="&#xdc;" d="M152 467v967h174v-955q0 -172 85.5 -261t252.5 -89q168 0 255 89t87 257v959h172v-967q0 -245 -135.5 -371.5t-378.5 -126.5q-242 0 -377 126.5t-135 371.5zM389 1567v186h186v-186h-186zM782 1567v186h187v-186h-187z" />
<glyph unicode="&#xdd;" d="M106 1434h193l365 -666h4l364 666h193l-473 -830v-604h-172v604zM580 1567l161 248h205l-221 -248h-145z" />
<glyph unicode="&#xde;" d="M270 0v1434h170v-238h260q227 0 364.5 -118.5t137.5 -338.5q0 -224 -131.5 -339t-370.5 -115h-260v-285h-170zM440 440h252q156 0 249 73t93 226q0 154 -92 227.5t-250 73.5h-252v-600z" />
<glyph unicode="&#xdf;" d="M268 0v1008q0 112 34.5 200.5t94.5 143.5t138.5 83.5t169.5 28.5q181 0 298 -106t117 -279q0 -65 -21 -119t-52 -85t-55 -48t-40 -22v-4q21 -6 44.5 -18t59 -41t62.5 -66.5t46.5 -100t19.5 -137.5q0 -438 -477 -438h-66v147h66q158 0 237.5 76t79.5 219q0 273 -285 273 h-98v139h59q116 0 189.5 54.5t73.5 164.5q0 109 -66 174.5t-186 65.5q-273 0 -273 -344v-969h-170z" />
<glyph unicode="&#xe0;" d="M236 279q0 134 84.5 211t283.5 128q56 14 91.5 24t75 23.5t62.5 27t44 30.5t29.5 38.5t8.5 47.5q0 67 -61.5 112.5t-165.5 45.5q-119 0 -180.5 -57t-83.5 -158l-156 45q26 142 134.5 230.5t279.5 88.5q182 0 297 -92.5t115 -249.5v-774h-152v119h-4q-13 -23 -38.5 -46.5 t-65 -48t-99.5 -40t-129 -15.5q-181 0 -275.5 88.5t-94.5 221.5zM401 1466h207l160 -247h-145zM403 289q0 -170 215 -170q148 0 228 66t80 163v270h-4q-13 -28 -70 -58t-209 -71q-140 -38 -190 -83t-50 -117z" />
<glyph unicode="&#xe1;" d="M236 279q0 134 84.5 211t283.5 128q56 14 91.5 24t75 23.5t62.5 27t44 30.5t29.5 38.5t8.5 47.5q0 67 -61.5 112.5t-165.5 45.5q-119 0 -180.5 -57t-83.5 -158l-156 45q26 142 134.5 230.5t279.5 88.5q182 0 297 -92.5t115 -249.5v-774h-152v119h-4q-13 -23 -38.5 -46.5 t-65 -48t-99.5 -40t-129 -15.5q-181 0 -275.5 88.5t-94.5 221.5zM403 289q0 -170 215 -170q148 0 228 66t80 163v270h-4q-13 -28 -70 -58t-209 -71q-140 -38 -190 -83t-50 -117zM616 1219l160 247h205l-219 -247h-146z" />
<glyph unicode="&#xe2;" d="M236 279q0 134 84.5 211t283.5 128q56 14 91.5 24t75 23.5t62.5 27t44 30.5t29.5 38.5t8.5 47.5q0 67 -61.5 112.5t-165.5 45.5q-119 0 -180.5 -57t-83.5 -158l-156 45q26 142 134.5 230.5t279.5 88.5q182 0 297 -92.5t115 -249.5v-774h-152v119h-4q-13 -23 -38.5 -46.5 t-65 -48t-99.5 -40t-129 -15.5q-181 0 -275.5 88.5t-94.5 221.5zM403 289q0 -170 215 -170q148 0 228 66t80 163v270h-4q-13 -28 -70 -58t-209 -71q-140 -38 -190 -83t-50 -117zM440 1270l135 174h224l135 -174l-98 -78l-150 188l-149 -188z" />
<glyph unicode="&#xe3;" d="M236 279q0 134 84.5 211t283.5 128q56 14 91.5 24t75 23.5t62.5 27t44 30.5t29.5 38.5t8.5 47.5q0 67 -61.5 112.5t-165.5 45.5q-119 0 -180.5 -57t-83.5 -158l-156 45q26 142 134.5 230.5t279.5 88.5q182 0 297 -92.5t115 -249.5v-774h-152v119h-4q-13 -23 -38.5 -46.5 t-65 -48t-99.5 -40t-129 -15.5q-181 0 -275.5 88.5t-94.5 221.5zM379 1233q35 192 182 192q55 0 127 -38.5t107 -38.5q57 0 73 67h90q-7 -41 -19 -72t-32 -60t-53 -44.5t-76 -15.5q-45 0 -88 19.5t-80 38.5t-67 19q-58 0 -74 -67h-90zM403 289q0 -170 215 -170q148 0 228 66 t80 163v270h-4q-13 -28 -70 -58t-209 -71q-140 -38 -190 -83t-50 -117z" />
<glyph unicode="&#xe4;" d="M236 279q0 134 84.5 211t283.5 128q56 14 91.5 24t75 23.5t62.5 27t44 30.5t29.5 38.5t8.5 47.5q0 67 -61.5 112.5t-165.5 45.5q-119 0 -180.5 -57t-83.5 -158l-156 45q26 142 134.5 230.5t279.5 88.5q182 0 297 -92.5t115 -249.5v-774h-152v119h-4q-13 -23 -38.5 -46.5 t-65 -48t-99.5 -40t-129 -15.5q-181 0 -275.5 88.5t-94.5 221.5zM379 1251v187h186v-187h-186zM403 289q0 -170 215 -170q148 0 228 66t80 163v270h-4q-13 -28 -70 -58t-209 -71q-140 -38 -190 -83t-50 -117zM772 1251v187h186v-187h-186z" />
<glyph unicode="&#xe5;" d="M236 279q0 134 84.5 211t283.5 128q56 14 91.5 24t75 23.5t62.5 27t44 30.5t29.5 38.5t8.5 47.5q0 67 -61.5 112.5t-165.5 45.5q-119 0 -180.5 -57t-83.5 -158l-156 45q21 113 94.5 194t192.5 111q-43 26 -66.5 73t-23.5 105q0 87 58 148t143 61q88 0 144 -60t56 -149 q0 -113 -82 -172q141 -25 225.5 -113.5t84.5 -220.5v-774h-152v119h-4q-13 -23 -38.5 -46.5t-65 -48t-99.5 -40t-129 -15.5q-181 0 -275.5 88.5t-94.5 221.5zM403 289q0 -170 215 -170q148 0 228 66t80 163v270h-4q-13 -28 -70 -58t-209 -71q-140 -38 -190 -83t-50 -117z M569 1282q0 -58 28.5 -89.5t68.5 -31.5t69 31.5t29 89.5q0 56 -29 85.5t-69 29.5t-68.5 -29.5t-28.5 -85.5z" />
<glyph unicode="&#xe6;" d="M94 281q0 127 64.5 207t187.5 130q117 50 163 92t46 95q0 67 -36.5 115.5t-98.5 48.5q-65 0 -104 -57t-50 -154l-137 28q11 143 92.5 236.5t196.5 93.5q89 0 158 -46.5t98 -141.5q90 188 250 188q147 0 230 -152t83 -421v-49h-512q1 -100 23.5 -182.5t70.5 -136.5 t115 -54q32 0 58.5 17t43 38.5t31 57.5t21 59t14.5 57l133 -49q-31 -147 -107.5 -239.5t-189.5 -92.5q-193 0 -287 232q-81 -232 -299 -232q-120 0 -189 88t-69 224zM248 289q0 -76 33.5 -123t95.5 -47q77 0 132.5 68.5t55.5 160.5v277h-4q-4 -22 -41.5 -48.5t-136.5 -80.5 q-135 -77 -135 -207zM729 629h356q0 62 -8.5 119.5t-26.5 107.5t-50 80.5t-74 30.5q-51 0 -91 -33.5t-62 -87t-33 -109t-11 -108.5z" />
<glyph unicode="&#xe7;" d="M229 543q0 132 39.5 241.5t107.5 181.5t158.5 111t192.5 39q175 0 296 -110t148 -287l-157 -33q-25 121 -95 200t-192 79q-146 0 -237 -111.5t-91 -310.5q0 -197 88.5 -309.5t241.5 -112.5q83 0 147 45t97.5 109.5t44.5 140.5l162 -33q-26 -187 -147 -299t-298 -115 l-55 -88q44 29 119 29q71 0 123.5 -40.5t52.5 -113.5q0 -84 -59 -136t-179 -52q-59 0 -114 22.5t-93 53.5l60 82q76 -60 153 -60q57 0 90 23t33 69q0 84 -98 84q-34 0 -68 -10t-52 -20l-17 -9l-60 33l80 139q-190 25 -306 175t-116 393z" />
<glyph unicode="&#xe8;" d="M170 543q0 260 140.5 416.5t359.5 156.5q218 0 354.5 -153.5t136.5 -419.5v-49h-819q1 -100 36 -182.5t111.5 -136.5t184.5 -54q59 0 108.5 15t79.5 33.5t58.5 51.5t39.5 51.5t28 50.5q5 9 7 13l138 -90q-61 -120 -175.5 -198.5t-279.5 -78.5q-222 0 -365 157t-143 417z M346 627h645q-2 63 -19.5 120t-53.5 107.5t-99.5 80.5t-148.5 30q-67 0 -122.5 -22.5t-92 -58t-61.5 -81t-36 -90t-12 -86.5zM406 1466h206l160 -247h-145z" />
<glyph unicode="&#xe9;" d="M170 543q0 260 140.5 416.5t359.5 156.5q218 0 354.5 -153.5t136.5 -419.5v-49h-819q1 -100 36 -182.5t111.5 -136.5t184.5 -54q59 0 108.5 15t79.5 33.5t58.5 51.5t39.5 51.5t28 50.5q5 9 7 13l138 -90q-61 -120 -175.5 -198.5t-279.5 -78.5q-222 0 -365 157t-143 417z M346 627h645q-2 63 -19.5 120t-53.5 107.5t-99.5 80.5t-148.5 30q-67 0 -122.5 -22.5t-92 -58t-61.5 -81t-36 -90t-12 -86.5zM606 1219l160 247h205l-219 -247h-146z" />
<glyph unicode="&#xea;" d="M170 543q0 260 140.5 416.5t359.5 156.5q218 0 354.5 -153.5t136.5 -419.5v-49h-819q1 -100 36 -182.5t111.5 -136.5t184.5 -54q59 0 108.5 15t79.5 33.5t58.5 51.5t39.5 51.5t28 50.5q5 9 7 13l138 -90q-61 -120 -175.5 -198.5t-279.5 -78.5q-222 0 -365 157t-143 417z M346 627h645q-2 63 -19.5 120t-53.5 107.5t-99.5 80.5t-148.5 30q-67 0 -122.5 -22.5t-92 -58t-61.5 -81t-36 -90t-12 -86.5zM432 1270l135 174h224l135 -174l-99 -78l-149 188l-150 -188z" />
<glyph unicode="&#xeb;" d="M170 543q0 260 140.5 416.5t359.5 156.5q218 0 354.5 -153.5t136.5 -419.5v-49h-819q1 -100 36 -182.5t111.5 -136.5t184.5 -54q59 0 108.5 15t79.5 33.5t58.5 51.5t39.5 51.5t28 50.5q5 9 7 13l138 -90q-61 -120 -175.5 -198.5t-279.5 -78.5q-222 0 -365 157t-143 417z M346 627h645q-2 63 -19.5 120t-53.5 107.5t-99.5 80.5t-148.5 30q-67 0 -122.5 -22.5t-92 -58t-61.5 -81t-36 -90t-12 -86.5zM391 1251v187h187v-187h-187zM784 1251v187h187v-187h-187z" />
<glyph unicode="&#xec;" d="M256 0v143h377v799h-367v143h533v-942h358v-143h-901zM420 1466h207l159 -247h-145z" />
<glyph unicode="&#xed;" d="M256 0v143h377v799h-367v143h533v-942h358v-143h-901zM633 1219l160 247h204l-219 -247h-145z" />
<glyph unicode="&#xee;" d="M256 0v143h377v799h-367v143h533v-942h358v-143h-901zM459 1270l135 174h223l135 -174l-98 -78l-149 188l-150 -188z" />
<glyph unicode="&#xef;" d="M256 0v143h377v799h-367v143h533v-942h358v-143h-901zM416 1251v187h186v-187h-186zM809 1251v187h186v-187h-186z" />
<glyph unicode="&#xf0;" d="M182 545q0 137 36.5 247.5t99.5 180t145.5 106.5t177.5 37q92 0 166 -31t115 -75l4 2q-55 171 -172 329l-303 -84l-27 89l268 73q-66 81 -153 164v4h188q48 -53 107 -129l270 76l26 -88l-241 -68q123 -187 193.5 -401.5t70.5 -429.5q0 -280 -130 -429t-349 -149 q-225 0 -358.5 149.5t-133.5 426.5zM342 541q0 -212 87.5 -317t244.5 -105q154 0 234.5 105.5t80.5 316.5q0 206 -83.5 318t-250.5 112q-146 0 -229.5 -106.5t-83.5 -323.5z" />
<glyph unicode="&#xf1;" d="M238 0v1085h159v-104h4q44 58 128.5 96.5t177.5 38.5q177 0 283 -108t106 -295v-713h-168v659q0 304 -246 304q-126 0 -201 -72t-75 -199v-692h-168zM395 1233q35 192 183 192q56 0 127 -38.5t106 -38.5q58 0 74 67h90q-7 -41 -19 -72t-32 -60t-53 -44.5t-76 -15.5 q-45 0 -88.5 19.5t-80.5 38.5t-67 19q-58 0 -74 -67h-90z" />
<glyph unicode="&#xf2;" d="M172 543q0 135 41 245.5t110 181t158.5 108.5t188.5 38q98 0 185.5 -38t155.5 -108.5t108 -181t40 -245.5q0 -269 -138.5 -421.5t-350.5 -152.5q-104 0 -194.5 38t-158 109t-106.5 181t-39 246zM344 543q0 -203 91.5 -312.5t234.5 -109.5q138 0 227.5 111.5t89.5 310.5 t-88.5 310.5t-228.5 111.5q-144 0 -235 -110t-91 -312zM365 1466h206l160 -247h-145z" />
<glyph unicode="&#xf3;" d="M172 543q0 135 41 245.5t110 181t158.5 108.5t188.5 38q98 0 185.5 -38t155.5 -108.5t108 -181t40 -245.5q0 -269 -138.5 -421.5t-350.5 -152.5q-104 0 -194.5 38t-158 109t-106.5 181t-39 246zM344 543q0 -203 91.5 -312.5t234.5 -109.5q138 0 227.5 111.5t89.5 310.5 t-88.5 310.5t-228.5 111.5q-144 0 -235 -110t-91 -312zM610 1219l160 247h205l-219 -247h-146z" />
<glyph unicode="&#xf4;" d="M172 543q0 135 41 245.5t110 181t158.5 108.5t188.5 38q98 0 185.5 -38t155.5 -108.5t108 -181t40 -245.5q0 -269 -138.5 -421.5t-350.5 -152.5q-104 0 -194.5 38t-158 109t-106.5 181t-39 246zM344 543q0 -203 91.5 -312.5t234.5 -109.5q138 0 227.5 111.5t89.5 310.5 t-88.5 310.5t-228.5 111.5q-144 0 -235 -110t-91 -312zM436 1270l135 174h224l135 -174l-99 -78l-149 188l-150 -188z" />
<glyph unicode="&#xf5;" d="M172 543q0 135 41 245.5t110 181t158.5 108.5t188.5 38q98 0 185.5 -38t155.5 -108.5t108 -181t40 -245.5q0 -269 -138.5 -421.5t-350.5 -152.5q-104 0 -194.5 38t-158 109t-106.5 181t-39 246zM344 543q0 -203 91.5 -312.5t234.5 -109.5q138 0 227.5 111.5t89.5 310.5 t-88.5 310.5t-228.5 111.5q-144 0 -235 -110t-91 -312zM397 1233q35 192 183 192q56 0 127 -38.5t106 -38.5q58 0 74 67h90q-7 -41 -19 -72t-32 -60t-53 -44.5t-76 -15.5q-45 0 -88.5 19.5t-80.5 38.5t-67 19q-58 0 -74 -67h-90z" />
<glyph unicode="&#xf6;" d="M172 543q0 135 41 245.5t110 181t158.5 108.5t188.5 38q98 0 185.5 -38t155.5 -108.5t108 -181t40 -245.5q0 -269 -138.5 -421.5t-350.5 -152.5q-104 0 -194.5 38t-158 109t-106.5 181t-39 246zM344 543q0 -203 91.5 -312.5t234.5 -109.5q138 0 227.5 111.5t89.5 310.5 t-88.5 310.5t-228.5 111.5q-144 0 -235 -110t-91 -312zM395 1251v187h187v-187h-187zM788 1251v187h187v-187h-187z" />
<glyph unicode="&#xf7;" d="M272 653v144h787v-144h-787zM520 289q0 61 42 103t102 42q63 0 105 -41.5t42 -103.5t-42 -104t-105 -42q-60 0 -102 42.5t-42 103.5zM520 1159q0 62 42 105t102 43q63 0 105 -43t42 -105q0 -60 -42 -101.5t-105 -41.5q-60 0 -102 41.5t-42 101.5z" />
<glyph unicode="&#xf8;" d="M176 543q0 109 26 202t72.5 160.5t108.5 115.5t135 71.5t152 23.5q173 0 301 -110l80 102l67 -53l-88 -113q125 -154 125 -399q0 -136 -37.5 -245.5t-103 -181t-153.5 -109.5t-191 -38q-186 0 -312 111l-79 -103l-68 52l88 112q-123 151 -123 402zM342 543 q0 -163 61 -269l471 607q-84 84 -204 84q-144 0 -236 -110t-92 -312zM457 205q87 -84 213 -84q138 0 228.5 112t90.5 310q0 162 -61 268z" />
<glyph unicode="&#xf9;" d="M246 379v706h168v-682q0 -151 58 -214.5t194 -63.5q122 0 188 75.5t66 211.5v673h167v-1085h-165v104h-4q-4 -5 -11 -14.5t-34 -32.5t-57.5 -41t-81 -32.5t-105.5 -14.5q-180 0 -281.5 102.5t-101.5 307.5zM397 1466h207l160 -247h-146z" />
<glyph unicode="&#xfa;" d="M246 379v706h168v-682q0 -151 58 -214.5t194 -63.5q122 0 188 75.5t66 211.5v673h167v-1085h-165v104h-4q-4 -5 -11 -14.5t-34 -32.5t-57.5 -41t-81 -32.5t-105.5 -14.5q-180 0 -281.5 102.5t-101.5 307.5zM598 1219l160 247h205l-220 -247h-145z" />
<glyph unicode="&#xfb;" d="M246 379v706h168v-682q0 -151 58 -214.5t194 -63.5q122 0 188 75.5t66 211.5v673h167v-1085h-165v104h-4q-4 -5 -11 -14.5t-34 -32.5t-57.5 -41t-81 -32.5t-105.5 -14.5q-180 0 -281.5 102.5t-101.5 307.5zM436 1270l135 174h224l135 -174l-99 -78l-149 188l-150 -188z " />
<glyph unicode="&#xfc;" d="M246 379v706h168v-682q0 -151 58 -214.5t194 -63.5q122 0 188 75.5t66 211.5v673h167v-1085h-165v104h-4q-4 -5 -11 -14.5t-34 -32.5t-57.5 -41t-81 -32.5t-105.5 -14.5q-180 0 -281.5 102.5t-101.5 307.5zM389 1251v187h186v-187h-186zM782 1251v187h187v-187h-187z" />
<glyph unicode="&#xfd;" d="M143 1085h181l321 -788h4l289 788h176l-584 -1546h-170l205 543zM618 1219l160 247h205l-219 -247h-146z" />
<glyph unicode="&#xfe;" d="M272 -461v1956h164v-512h4q106 133 305 133q206 0 341 -156.5t135 -416.5q0 -263 -132.5 -418.5t-347.5 -155.5q-88 0 -173.5 38t-123.5 91h-4v-559h-168zM440 356q0 -95 79.5 -164t199.5 -69q162 0 249 110.5t87 309.5t-87.5 309.5t-248.5 110.5q-126 0 -202.5 -81.5 t-76.5 -181.5v-344z" />
<glyph unicode="&#xff;" d="M143 1085h181l321 -788h4l289 788h176l-584 -1546h-170l205 543zM393 1251v187h187v-187h-187zM786 1251v187h187v-187h-187z" />
<glyph unicode="&#x152;" d="M152 729q0 144 21 266t57.5 207t84 145t101 88.5t108.5 28.5q71 0 123 -36.5t72 -90.5h4v97h498v-156h-320v-449h262v-149h-262v-524h320v-156h-498v96h-4q-29 -64 -81 -95.5t-114 -31.5q-54 0 -105 25.5t-100 84.5t-85.5 144.5t-59 216t-22.5 289.5zM334 729 q0 -166 18.5 -285.5t51.5 -184.5t71.5 -94.5t85.5 -29.5q57 0 99.5 41.5t62.5 122.5v834q-16 72 -58 117.5t-104 45.5q-104 0 -165.5 -140t-61.5 -427z" />
<glyph unicode="&#x153;" d="M106 543q0 268 91 420.5t225 152.5q83 0 157 -66.5t99 -179.5h4q31 114 99 180t145 66q135 0 216 -151.5t81 -421.5v-49h-457q2 -146 56.5 -259.5t127.5 -113.5q29 0 51.5 20.5t37.5 58.5t22.5 67t15.5 71l135 -33q-25 -154 -90 -245t-176 -91q-91 0 -161.5 65 t-102.5 181h-4q-25 -113 -99 -179.5t-157 -66.5q-135 0 -225.5 153t-90.5 421zM262 543q0 -199 47.5 -310.5t112.5 -111.5q67 0 115.5 113t48.5 309q0 197 -48 309.5t-116 112.5q-65 0 -112.5 -112t-47.5 -310zM770 629h305q0 78 -18.5 155t-53.5 130t-77 53q-38 0 -69 -34 t-49 -86.5t-28 -109t-10 -108.5z" />
<glyph unicode="&#x178;" d="M106 1434h193l365 -666h4l364 666h193l-473 -830v-604h-172v604zM377 1567v186h186v-186h-186zM770 1567v186h186v-186h-186z" />
<glyph unicode="&#x2c6;" d="M418 1270l135 174h223l135 -174l-98 -78l-149 188l-150 -188z" />
<glyph unicode="&#x2dc;" d="M375 1233q35 192 182 192q55 0 127 -38.5t107 -38.5q57 0 73 67h90q-7 -41 -19 -72t-32 -60t-53 -44.5t-76 -15.5q-45 0 -88 19.5t-80 38.5t-67 19q-58 0 -74 -67h-90z" />
<glyph unicode="&#x2000;" horiz-adv-x="926" />
<glyph unicode="&#x2001;" horiz-adv-x="1853" />
<glyph unicode="&#x2002;" horiz-adv-x="926" />
<glyph unicode="&#x2003;" horiz-adv-x="1853" />
<glyph unicode="&#x2004;" horiz-adv-x="617" />
<glyph unicode="&#x2005;" horiz-adv-x="463" />
<glyph unicode="&#x2006;" horiz-adv-x="308" />
<glyph unicode="&#x2007;" horiz-adv-x="308" />
<glyph unicode="&#x2008;" horiz-adv-x="231" />
<glyph unicode="&#x2009;" horiz-adv-x="370" />
<glyph unicode="&#x200a;" horiz-adv-x="102" />
<glyph unicode="&#x2010;" d="M328 623v151h673v-151h-673z" />
<glyph unicode="&#x2011;" d="M328 623v151h673v-151h-673z" />
<glyph unicode="&#x2012;" d="M328 623v151h673v-151h-673z" />
<glyph unicode="&#x2013;" d="M154 625v149h1022v-149h-1022z" />
<glyph unicode="&#x2014;" d="M82 625v149h1167v-149h-1167z" />
<glyph unicode="&#x2018;" d="M545 975v211q0 232 241 248v-93q-55 -10 -76.5 -40.5t-21.5 -83.5h98v-242h-241z" />
<glyph unicode="&#x2019;" d="M545 975v92q55 10 76.5 40.5t21.5 84.5h-98v242h241v-211q0 -232 -241 -248z" />
<glyph unicode="&#x201a;" d="M545 0v242h241v-211q0 -232 -241 -248v92q55 10 76.5 40.5t21.5 84.5h-98z" />
<glyph unicode="&#x201c;" d="M358 975v211q0 232 242 248v-93q-55 -10 -76.5 -40.5t-21.5 -83.5h98v-242h-242zM729 975v211q0 232 242 248v-93q-56 -10 -77.5 -40.5t-21.5 -83.5h99v-242h-242z" />
<glyph unicode="&#x201d;" d="M358 975v92q55 10 77 41t22 84h-99v242h242v-211q0 -232 -242 -248zM729 975v92q55 10 76.5 40.5t21.5 84.5h-98v242h242v-211q0 -232 -242 -248z" />
<glyph unicode="&#x201e;" d="M358 0v242h242v-211q0 -232 -242 -248v92q55 10 77 41t22 84h-99zM729 0v242h242v-211q0 -232 -242 -248v92q55 10 76.5 40.5t21.5 84.5h-98z" />
<glyph unicode="&#x2022;" d="M479 733q0 84 51.5 137.5t135.5 53.5t135 -53.5t51 -137.5q0 -83 -51 -135.5t-135 -52.5t-135.5 52.5t-51.5 135.5z" />
<glyph unicode="&#x2026;" d="M135 0v242h242v-242h-242zM551 0v242h242v-242h-242zM954 0v242h242v-242h-242z" />
<glyph unicode="&#x202f;" horiz-adv-x="370" />
<glyph unicode="&#x2039;" d="M469 575l223 381h164l-223 -381l227 -380h-166z" />
<glyph unicode="&#x203a;" d="M367 195l227 380l-223 381h164l223 -381l-226 -380h-165z" />
<glyph unicode="&#x205f;" horiz-adv-x="463" />
<glyph unicode="&#x2070;" d="M340 1417q0 214 89.5 325t236.5 111t236 -111t89 -325q0 -229 -87.5 -344t-237.5 -115q-151 0 -238.5 115t-87.5 344zM481 1419q0 -48 2 -71l342 249q-43 129 -159 129q-185 0 -185 -307zM502 1231q39 -146 164 -146q92 0 138 81t46 253q0 12 -1 33t-1 31z" />
<glyph unicode="&#x2074;" d="M348 1171v125l332 547h194v-547h107v-125h-107v-202h-133v202h-393zM473 1296h268v433h-4z" />
<glyph unicode="&#x2075;" d="M348 1192l125 55q21 -76 71 -120t126 -44q81 0 131.5 48.5t50.5 136.5q0 87 -50.5 134.5t-127.5 47.5q-117 0 -187 -98l-110 51l78 440h440v-125h-338l-43 -237h4q24 29 71.5 52t117.5 23q115 0 195.5 -81t80.5 -209q0 -142 -89 -225t-224 -83q-125 0 -206 64.5 t-116 169.5z" />
<glyph unicode="&#x2076;" d="M340 1395q0 196 95.5 327t250.5 131q117 0 185 -62t87 -157l-122 -35q-38 134 -156 134q-88 0 -145.5 -83t-57.5 -223h4q18 41 79.5 80t156.5 39q109 0 191.5 -78t82.5 -211q0 -138 -85.5 -218.5t-213.5 -80.5q-73 0 -135.5 26t-111.5 77.5t-77 137t-28 196.5zM508 1270 q0 -84 51 -134.5t133 -50.5t126 49t44 128q0 80 -46 128t-130 48q-80 0 -129 -50.5t-49 -117.5z" />
<glyph unicode="&#x2077;" d="M375 1720v123h577v-149l-385 -725h-151l409 747v4h-450z" />
<glyph unicode="&#x2078;" d="M360 1221q0 78 42.5 137.5t111.5 81.5v4q-115 50 -115 182q0 94 74.5 160.5t190.5 66.5q117 0 192.5 -66.5t75.5 -160.5q0 -128 -115 -182v-4q65 -23 108.5 -82.5t43.5 -136.5q0 -124 -83.5 -193.5t-221.5 -69.5t-221 69.5t-83 193.5zM492 1233q0 -66 43 -107t129 -41 t129 41t43 107q0 69 -45 112.5t-127 43.5t-127 -43.5t-45 -112.5zM528 1614q0 -51 34.5 -86t101.5 -35q66 0 100.5 35t34.5 86t-34.5 88t-100.5 37t-101 -37t-35 -88z" />
<glyph unicode="&#x2079;" d="M350 1556q0 134 86 215.5t211 81.5q69 0 127.5 -26t105.5 -78.5t74 -141.5t27 -206q0 -225 -83.5 -334t-229.5 -109q-123 0 -192.5 60.5t-94.5 152.5l123 43q32 -133 170 -133q183 0 180 299h-4q-9 -36 -65 -75t-150 -39q-115 0 -200 79.5t-85 210.5zM479 1556 q0 -79 46.5 -126.5t127.5 -47.5q78 0 125 44t47 122t-48.5 130.5t-129.5 52.5q-74 0 -121 -48t-47 -127z" />
<glyph unicode="&#x207a;" d="M322 1372v121h278v283h129v-283h281v-121h-281v-317h-129v317h-278z" />
<glyph unicode="&#x2080;" d="M340 39q0 214 89.5 325t236.5 111t236 -111t89 -325q0 -229 -87.5 -344t-237.5 -115q-151 0 -238.5 115t-87.5 344zM481 41q0 -49 2 -72l342 250q-43 129 -159 129q-185 0 -185 -307zM502 -147q39 -146 164 -146q92 0 138 81t46 253q0 12 -1 32.5t-1 30.5z" />
<glyph unicode="&#x2081;" d="M371 -283h237v590l-188 -117v150l201 125h120v-748h220v-127h-590v127z" />
<glyph unicode="&#x2082;" d="M367 182q7 139 89.5 216t219.5 77q126 0 204 -73t78 -191q0 -54 -18.5 -98.5t-55.5 -78t-72 -55.5t-87 -47q-126 -68 -151 -88q-18 -14 -29 -30q-21 -29 -21 -88h441v-136h-590v107q0 110 53 184q19 25 53 49.5t57.5 37.5t82.5 44q114 63 140 82q66 55 68 125 q0 54 -40 94.5t-113 40.5q-81 0 -125.5 -48.5t-52.5 -139.5z" />
<glyph unicode="&#x2083;" d="M352 -121l133 29q12 -105 58 -155t133 -50q85 0 128.5 39.5t43.5 105.5q0 72 -47 111t-133 39h-54v108h41q36 0 69 9.5t60 37t27 70.5q0 60 -37 94.5t-104 34.5q-128 0 -148 -145l-127 24q10 112 86 178t193 66q114 0 190 -63t76 -170q0 -71 -38 -115.5t-81 -58.5v-5 q26 -8 51 -23.5t49.5 -41.5t40 -67t15.5 -91q0 -112 -81 -186t-220 -74q-134 0 -220 75t-104 224z" />
<glyph unicode="&#x2084;" d="M348 -82l332 547h194v-547h107v-125h-107v-203h-133v203h-393v125zM473 -82h268v432h-4z" />
<glyph unicode="&#x2085;" d="M348 -186l125 55q21 -76 71 -120t126 -44q81 0 131.5 48t50.5 136q0 87 -50.5 135t-127.5 48q-116 0 -187 -99l-110 52l78 440h440v-125h-338l-43 -238h4q24 30 71.5 53t117.5 23q115 0 195.5 -81.5t80.5 -209.5q0 -142 -89 -224.5t-224 -82.5q-125 0 -206 64.5 t-116 169.5z" />
<glyph unicode="&#x2086;" d="M340 14q0 196 95.5 327.5t250.5 131.5q117 0 185 -62t87 -157l-122 -35q-37 133 -156 133q-88 0 -145.5 -83t-57.5 -222h4q18 41 79.5 80t156.5 39q109 0 191.5 -78t82.5 -211q0 -138 -85.5 -218.5t-213.5 -80.5q-73 0 -135.5 26t-111.5 77t-77 136.5t-28 196.5z M508 -111q0 -84 51 -134t133 -50t126 48.5t44 127.5q0 80 -46 128t-130 48q-80 0 -129 -50.5t-49 -117.5z" />
<glyph unicode="&#x2087;" d="M375 342v123h577v-150l-385 -725h-151l409 748v4h-450z" />
<glyph unicode="&#x2088;" d="M360 -158q0 78 42.5 137.5t111.5 81.5v5q-115 50 -115 182q0 94 74.5 160.5t190.5 66.5q117 0 192.5 -66.5t75.5 -160.5q0 -128 -115 -182v-5q65 -23 108.5 -82.5t43.5 -136.5q0 -124 -83.5 -193t-221.5 -69t-221 69t-83 193zM492 -145q0 -66 43 -107t129 -41t129 41 t43 107q0 69 -45 112t-127 43t-127 -43t-45 -112zM528 236q0 -51 34.5 -86t101.5 -35q66 0 100.5 35t34.5 86t-34.5 87.5t-100.5 36.5t-101 -37t-35 -87z" />
<glyph unicode="&#x2089;" d="M350 178q0 134 86 215.5t211 81.5q69 0 127.5 -26t105.5 -78.5t74 -141.5t27 -206q0 -225 -83.5 -334t-229.5 -109q-123 0 -192.5 60.5t-94.5 152.5l123 43q32 -133 170 -133q183 0 180 299h-4q-9 -36 -65 -75.5t-150 -39.5q-115 0 -200 80t-85 211zM479 178 q0 -79 46.5 -126.5t127.5 -47.5q78 0 125 44t47 122q0 77 -48.5 129.5t-129.5 52.5q-74 0 -121 -47.5t-47 -126.5z" />
<glyph unicode="&#x20ac;" d="M143 481v137h82q-4 70 -4 111q0 45 2 68h-80v137h93q21 130 68.5 232t113 166.5t144 98t165.5 33.5q186 0 309.5 -138.5t147.5 -360.5l-172 -31q-10 77 -30.5 140.5t-53.5 116.5t-84.5 82.5t-116.5 29.5q-117 0 -199 -92.5t-112 -276.5h434v-137h-449v-68q0 -23 5 -111 h444v-137h-428q32 -176 111 -264t194 -88q67 0 119.5 31.5t86 88t53 127.5t24.5 156l178 -22q-17 -248 -141 -394.5t-320 -146.5q-86 0 -162 29t-141.5 88.5t-113.5 160t-70 234.5h-97z" />
<glyph unicode="&#x2122;" d="M145 1325v109h406v-109h-139v-586h-115v586h-152zM610 739v695h158l111 -271h4l108 271h160v-695h-115v539h-4l-110 -283h-82l-111 281h-4v-537h-115z" />
<glyph unicode="&#x25fc;" horiz-adv-x="1085" d="M0 0v1085h1085v-1085h-1085z" />
<glyph d="M197 543q0 258 133 415.5t338 157.5q196 0 303 -135h4v104h160v-1085h-156v109h-4q-93 -140 -307 -140q-210 0 -340.5 156t-130.5 418zM365 543q0 -200 84 -310t245 -110q120 0 199.5 69.5t79.5 165.5v338q0 102 -76 184.5t-203 82.5q-160 0 -244.5 -110t-84.5 -310z" />
<glyph d="M197 543q0 258 133 415.5t338 157.5q196 0 303 -135h4v104h160v-1085h-156v109h-4q-93 -140 -307 -140q-210 0 -340.5 156t-130.5 418zM365 543q0 -200 84 -310t245 -110q120 0 199.5 69.5t79.5 165.5v338q0 102 -76 184.5t-203 82.5q-160 0 -244.5 -110t-84.5 -310z M385 1466h207l160 -247h-146z" />
<glyph d="M197 543q0 258 133 415.5t338 157.5q196 0 303 -135h4v104h160v-1085h-156v109h-4q-93 -140 -307 -140q-210 0 -340.5 156t-130.5 418zM365 543q0 -200 84 -310t245 -110q120 0 199.5 69.5t79.5 165.5v338q0 102 -76 184.5t-203 82.5q-160 0 -244.5 -110t-84.5 -310z M604 1219l160 247h205l-219 -247h-146z" />
<glyph d="M197 543q0 258 133 415.5t338 157.5q196 0 303 -135h4v104h160v-1085h-156v109h-4q-93 -140 -307 -140q-210 0 -340.5 156t-130.5 418zM365 543q0 -200 84 -310t245 -110q120 0 199.5 69.5t79.5 165.5v338q0 102 -76 184.5t-203 82.5q-160 0 -244.5 -110t-84.5 -310z M461 1270l135 174h223l135 -174l-98 -78l-149 188l-150 -188z" />
<glyph d="M197 543q0 258 133 415.5t338 157.5q196 0 303 -135h4v104h160v-1085h-156v109h-4q-93 -140 -307 -140q-210 0 -340.5 156t-130.5 418zM365 543q0 -200 84 -310t245 -110q120 0 199.5 69.5t79.5 165.5v338q0 102 -76 184.5t-203 82.5q-160 0 -244.5 -110t-84.5 -310z M414 1233q35 192 182 192q56 0 127 -38.5t106 -38.5q58 0 74 67h90q-7 -41 -19 -72t-32 -60t-53 -44.5t-76 -15.5q-45 0 -88 19.5t-80 38.5t-67 19q-58 0 -74 -67h-90z" />
<glyph d="M197 543q0 258 133 415.5t338 157.5q196 0 303 -135h4v104h160v-1085h-156v109h-4q-93 -140 -307 -140q-210 0 -340.5 156t-130.5 418zM365 543q0 -200 84 -310t245 -110q120 0 199.5 69.5t79.5 165.5v338q0 102 -76 184.5t-203 82.5q-160 0 -244.5 -110t-84.5 -310z M414 1251v187h186v-187h-186zM807 1251v187h186v-187h-186z" />
<glyph d="M197 543q0 225 103 376t271 187q-84 59 -84 174q0 87 58 148t143 61q88 0 144.5 -60t56.5 -149q0 -60 -25 -107.5t-69 -74.5q104 -29 176 -117h4v104h160v-1085h-156v109h-4q-93 -140 -307 -140q-210 0 -340.5 156t-130.5 418zM365 543q0 -200 84 -310t245 -110 q120 0 199.5 69.5t79.5 165.5v338q0 102 -76 184.5t-203 82.5q-160 0 -244.5 -110t-84.5 -310zM592 1282q0 -58 28 -89.5t68 -31.5t69 31.5t29 89.5q0 56 -29 85.5t-69 29.5t-68 -29.5t-28 -85.5z" />
<glyph d="M414 713q0 121 20 239t50 208.5t73 177t79.5 144t79.5 112t64 77t41 41.5l97 -78q-62 -69 -109 -130.5t-96 -148.5t-80.5 -177t-51.5 -209.5t-20 -253.5q0 -142 29.5 -281.5t82 -258t111.5 -216t129 -184.5l-92 -76q-25 24 -65 74t-102 150.5t-113.5 213.5t-89 268 t-37.5 308z" />
<glyph d="M414 1634l96 78q20 -19 41 -41.5t64 -77t80 -111.5t80 -144t73 -177.5t50 -208.5t20 -239q0 -153 -37.5 -308.5t-89 -268t-114 -213t-102.5 -150.5t-65 -74l-92 76q70 87 129 184.5t111.5 216t82 258t29.5 281.5q0 134 -20 253.5t-51 210t-80 177t-96 148t-109 130.5z " />
<glyph d="M418 -250v1950h495v-121h-364v-1708h364v-121h-495z" />
<glyph d="M418 -129h364v1708h-364v121h495v-1950h-495v121z" />
<glyph d="M391 662v182h58q59 0 83.5 29.5t24.5 95.5v444q0 85 19 142.5t56.5 88.5t84 43.5t110.5 12.5h111v-123h-109q-75 0 -108 -39.5t-33 -138.5v-436q0 -48 -13.5 -86.5t-32 -60t-40.5 -36.5t-35.5 -20t-21.5 -6q103 -41 132 -131q11 -34 11 -74v-533q0 -99 33 -138.5 t110 -39.5h107v-123h-111q-65 0 -110.5 12t-83.5 42.5t-57 88.5t-19 144v541q0 65 -24 92t-84 27h-58z" />
<glyph d="M391 -162h107q77 0 110 39.5t33 138.5v533q0 129 107 189q12 6 36 16q-8 1 -21.5 6t-35.5 20t-40.5 36.5t-32 60t-13.5 86.5v436q0 99 -33 138.5t-108 39.5h-109v123h111q64 0 110.5 -12.5t84 -43.5t56.5 -88.5t19 -142.5v-444q0 -66 25 -95.5t84 -29.5h57v-182h-57 q-60 0 -84.5 -27t-24.5 -92v-541q0 -86 -19 -144t-57 -88.5t-83.5 -42.5t-110.5 -12h-111v123z" />
<glyph d="M340 1008q0 214 89.5 325t236.5 111t236 -111t89 -325q0 -229 -87.5 -344t-237.5 -115q-151 0 -238.5 115t-87.5 344zM481 1010q0 -49 2 -72l342 250q-43 129 -159 129q-185 0 -185 -307zM502 821q39 -145 164 -145q92 0 138 81t46 253q0 12 -1 32.5t-1 30.5z" />
<glyph d="M371 559v127h237v590l-188 -117v150l201 125h120v-748h220v-127h-590z" />
<glyph d="M367 1151q7 139 89.5 216t219.5 77q126 0 204 -73t78 -191q0 -54 -18.5 -98.5t-55.5 -78t-72 -55.5t-87 -47q-70 -37 -92.5 -50t-49 -32t-38.5 -37q-21 -29 -21 -88h441v-135h-590v107q0 110 53 184q19 25 53 49.5t57.5 37.5t82.5 44q114 63 140 82q66 55 68 125 q0 54 -40 94.5t-113 40.5q-81 0 -125.5 -48.5t-52.5 -139.5z" />
<glyph d="M352 848l133 29q12 -105 58 -155t133 -50q85 0 128.5 39.5t43.5 105.5q0 72 -47 111t-133 39h-54v108h41q36 0 69 9.5t60 37t27 70.5q0 60 -37 94.5t-104 34.5q-128 0 -148 -145l-127 24q10 112 86 178t193 66q114 0 190 -63.5t76 -170.5q0 -71 -38 -115.5t-81 -58.5v-4 q26 -8 51 -23.5t49.5 -41.5t40 -67t15.5 -91q0 -112 -81 -186t-220 -74q-134 0 -220 75t-104 224z" />
<glyph d="M348 762v125l332 547h194v-547h107v-125h-107v-203h-133v203h-393zM473 887h268v432h-4z" />
<glyph d="M348 782l125 56q21 -76 71 -120t126 -44q81 0 131.5 48t50.5 136q0 87 -50.5 134.5t-127.5 47.5q-117 0 -187 -98l-110 51l78 441h440v-125h-338l-43 -238h4q24 30 71.5 53t117.5 23q115 0 195.5 -81.5t80.5 -209.5q0 -142 -89 -224.5t-224 -82.5q-125 0 -206 64 t-116 169z" />
<glyph d="M340 985q0 196 95.5 327.5t250.5 131.5q117 0 185 -62t87 -157l-122 -35q-37 133 -156 133q-88 0 -145.5 -83t-57.5 -222h4q18 41 79.5 80t156.5 39q109 0 191.5 -78t82.5 -211q0 -138 -85.5 -218.5t-213.5 -80.5q-73 0 -135.5 26t-111.5 77t-77 136.5t-28 196.5z M508 860q0 -84 51 -134t133 -50t126 48.5t44 127.5q0 80 -46 128t-130 48q-80 0 -129 -50.5t-49 -117.5z" />
<glyph d="M375 1311v123h577v-150l-385 -725h-151l409 748v4h-450z" />
<glyph d="M360 811q0 78 42.5 137.5t111.5 81.5v4q-115 50 -115 183q0 94 74.5 160.5t190.5 66.5q117 0 192.5 -66.5t75.5 -160.5q0 -129 -115 -183v-4q65 -23 108.5 -82.5t43.5 -136.5q0 -124 -83.5 -193t-221.5 -69t-221 69t-83 193zM492 823q0 -66 43 -106.5t129 -40.5t129 40.5 t43 106.5q0 69 -45 112.5t-127 43.5t-127 -43.5t-45 -112.5zM528 1204q0 -51 34.5 -86t101.5 -35q66 0 100.5 35t34.5 86t-34.5 88t-100.5 37t-101 -37t-35 -88z" />
<glyph d="M350 1147q0 134 86 215.5t211 81.5q69 0 127.5 -26t105.5 -79t74 -142t27 -206q0 -225 -83.5 -333.5t-229.5 -108.5q-123 0 -192.5 60.5t-94.5 152.5l123 43q32 -133 170 -133q183 0 180 299h-4q-9 -36 -65 -75.5t-150 -39.5q-115 0 -200 80t-85 211zM479 1147 q0 -79 46.5 -126.5t127.5 -47.5q78 0 125 44t47 122q0 77 -48.5 129.5t-129.5 52.5q-74 0 -121 -47.5t-47 -126.5z" />
<glyph d="M340 449q0 214 89.5 325t236.5 111t236 -111t89 -325q0 -229 -87.5 -344t-237.5 -115q-151 0 -238.5 115t-87.5 344zM481 451q0 -49 2 -72l342 250q-43 129 -159 129q-185 0 -185 -307zM502 262q39 -145 164 -145q92 0 138 81t46 253q0 12 -1 32.5t-1 30.5z" />
<glyph d="M371 0v127h237v590l-188 -117v150l201 124h120v-747h220v-127h-590z" />
<glyph d="M367 592q7 139 89.5 216t219.5 77q126 0 204 -73t78 -191q0 -54 -18.5 -98.5t-55.5 -78t-72 -55.5t-87 -47q-70 -37 -92.5 -50t-49 -32t-38.5 -37q-21 -29 -21 -88h441v-135h-590v106q0 111 53 185q19 25 53 49.5t57.5 37.5t82.5 44q114 63 140 82q66 55 68 125 q0 54 -40 94.5t-113 40.5q-80 0 -125 -49t-53 -140z" />
<glyph d="M352 289l133 28q12 -105 58 -154.5t133 -49.5q85 0 128.5 39.5t43.5 105.5q0 72 -47 111t-133 39h-54v108h41q36 0 69 9.5t60 37t27 70.5q0 60 -37 94.5t-104 34.5q-128 0 -148 -146l-127 25q10 112 86 178t193 66q114 0 190 -63.5t76 -170.5q0 -71 -38 -115.5t-81 -58.5 v-4q26 -8 51 -23.5t49.5 -41.5t40 -67t15.5 -91q0 -112 -81 -186t-220 -74q-134 0 -220 75t-104 224z" />
<glyph d="M348 203v125l332 546h194v-546h107v-125h-107v-203h-133v203h-393zM473 328h268v432h-4z" />
<glyph d="M348 223l125 56q21 -76 71 -120t126 -44q81 0 131.5 48t50.5 136q0 87 -50.5 134.5t-127.5 47.5q-117 0 -187 -98l-110 51l78 440h440v-124h-338l-43 -238h4q24 30 71.5 53t117.5 23q115 0 195.5 -81.5t80.5 -209.5q0 -142 -89 -224.5t-224 -82.5q-125 0 -206 64 t-116 169z" />
<glyph d="M340 426q0 196 95.5 327.5t250.5 131.5q117 0 185 -62t87 -157l-122 -35q-37 133 -156 133q-88 0 -145.5 -83t-57.5 -222h4q18 41 79.5 80t156.5 39q109 0 191.5 -78t82.5 -211q0 -138 -85.5 -218.5t-213.5 -80.5q-73 0 -135.5 26t-111.5 77t-77 136.5t-28 196.5z M508 301q0 -84 51 -134t133 -50t126 48.5t44 127.5q0 80 -46 128t-130 48q-80 0 -129 -50.5t-49 -117.5z" />
<glyph d="M375 752v122h577v-149l-385 -725h-151l409 748v4h-450z" />
<glyph d="M360 252q0 78 42.5 137.5t111.5 81.5v4q-115 50 -115 182q0 95 74.5 161.5t190.5 66.5q117 0 192.5 -66.5t75.5 -161.5q0 -128 -115 -182v-4q65 -23 108.5 -82.5t43.5 -136.5q0 -124 -83.5 -193t-221.5 -69t-221 69t-83 193zM492 264q0 -66 43 -106.5t129 -40.5t129 40.5 t43 106.5q0 69 -45 112.5t-127 43.5t-127 -43.5t-45 -112.5zM528 645q0 -51 34.5 -86t101.5 -35q66 0 100.5 35t34.5 86t-34.5 88t-100.5 37t-101 -37t-35 -88z" />
<glyph d="M350 588q0 134 86 215.5t211 81.5q69 0 127.5 -26t105.5 -79t74 -142t27 -206q0 -225 -83.5 -333.5t-229.5 -108.5q-123 0 -192.5 60.5t-94.5 152.5l123 43q32 -133 170 -133q183 0 180 299h-4q-9 -36 -65 -75.5t-150 -39.5q-115 0 -200 80t-85 211zM479 588 q0 -79 46.5 -126.5t127.5 -47.5q78 0 125 44t47 122q0 77 -48.5 129.5t-129.5 52.5q-74 0 -121 -47.5t-47 -126.5z" />
</font>
</defs>
</svg>
