<?xml version="1.0" standalone="no"?>
<!DOCTYPE svg PUBLIC "-//W3C//DTD SVG 20010904//EN"
 "http://www.w3.org/TR/2001/REC-SVG-20010904/DTD/svg10.dtd">
<svg version="1.0" xmlns="http://www.w3.org/2000/svg"
 width="260.000000pt" height="260.000000pt" viewBox="0 0 260.000000 260.000000"
 preserveAspectRatio="xMidYMid meet">
<metadata>
Created by potrace 1.11, written by Peter Selinger 2001-2013
</metadata>
<g transform="translate(0.000000,260.000000) scale(0.100000,-0.100000)"
fill="#000000" stroke="none">
<path d="M0 1300 l0 -1300 1300 0 1300 0 0 1300 0 1300 -1300 0 -1300 0 0
-1300z m1410 859 c144 -23 264 -113 327 -245 19 -41 35 -90 36 -115 l2 -43
-75 -12 c-120 -20 -114 -22 -135 48 -24 82 -96 157 -168 177 -108 31 -237 -11
-303 -98 -91 -118 -108 -356 -37 -513 58 -131 192 -199 324 -168 72 17 148 92
178 173 11 32 21 67 21 77 0 11 5 20 10 20 19 0 185 -43 192 -49 12 -10 -18
-114 -51 -180 -76 -150 -223 -231 -419 -231 -196 0 -354 99 -436 273 -19 40
-40 97 -47 127 -18 72 -18 289 0 360 70 283 304 444 581 399z m380 -1634 l0
-95 -490 0 -490 0 0 95 0 95 490 0 490 0 0 -95z"/>
</g>
</svg>
